<svg width="76" height="76" viewBox="0 0 76 76" fill="none" xmlns="http://www.w3.org/2000/svg">
<g clip-path="url(#clip0)">
<path d="M38.5857 17.5098C38.5857 17.8333 38.3235 18.0955 38 18.0955C37.6766 18.0955 37.4143 17.8333 37.4143 17.5098V15.9163C37.4143 15.5928 37.6766 15.3306 38 15.3306C38.3235 15.3306 38.5857 15.5928 38.5857 15.9163V17.5098Z" fill="black" stroke="black"/>
<path d="M53.1426 21.9947L53.1425 21.9949L52.0157 23.1216L52.0156 23.1216C51.7868 23.3503 51.7868 23.721 52.0154 23.9498L53.1426 21.9947ZM53.1426 21.9947C53.3711 21.7661 53.7418 21.766 53.9707 21.9948M53.1426 21.9947L53.9707 21.9948M53.9707 21.9948C53.9707 21.9948 53.9707 21.9948 53.9707 21.9949C54.1993 22.2236 54.1993 22.5945 53.9707 22.8232C53.9707 22.8232 53.9707 22.8233 53.9707 22.8233L52.8439 23.95C52.7296 24.0644 52.5805 24.1215 52.4298 24.1215C52.2792 24.1215 52.1302 24.0644 52.0155 23.9499L54.3243 21.6413L53.9707 21.9948Z" fill="black" stroke="black"/>
<path d="M57.7861 38.0003C57.7861 37.6768 58.0483 37.4146 58.3718 37.4146H59.9654C60.289 37.4146 60.5511 37.6767 60.5511 38.0003C60.5511 38.3239 60.289 38.586 59.9654 38.586H58.3718C58.0483 38.586 57.7861 38.3238 57.7861 38.0003Z" fill="black" stroke="black"/>
<path d="M51.9318 52.0157C51.9318 52.0157 51.9318 52.0157 51.9319 52.0156C52.1606 51.7871 52.5313 51.7871 52.7602 52.0157C52.7602 52.0157 52.7603 52.0158 52.7603 52.0158L53.887 53.1424L51.9318 52.0157ZM51.9318 52.0157C51.703 52.2447 51.7031 52.6154 51.9318 52.8441L53.0584 53.9706C53.0584 53.9707 53.0584 53.9707 53.0585 53.9707C53.173 54.0851 53.3221 54.1422 53.4727 54.1422C53.6234 54.1422 53.7726 54.0851 53.8871 53.9706C54.1158 53.7417 54.1157 53.371 53.887 53.1424L51.9318 52.0157Z" fill="black" stroke="black"/>
<path d="M37.2959 59.9659V58.3723C37.2959 58.0487 37.558 57.7866 37.8816 57.7866C38.2052 57.7866 38.4673 58.0487 38.4673 58.3723V59.9659C38.4673 60.2894 38.2051 60.5516 37.8816 60.5516C37.5581 60.5516 37.2959 60.2894 37.2959 59.9659Z" fill="black" stroke="black"/>
<path d="M21.9112 53.8867L21.9114 53.8869C22.0257 54.0013 22.1747 54.0584 22.3254 54.0584C22.4761 54.0584 22.6252 54.0013 22.7395 53.8869L22.7396 53.8869L23.8664 52.7602C23.8664 52.7602 23.8664 52.7602 23.8664 52.7602C24.0951 52.5314 24.095 52.1606 23.8664 51.9321L23.8663 51.932C23.6378 51.7034 23.267 51.7033 23.0381 51.9319L21.9112 53.8867ZM21.9112 53.8867C21.6826 53.6582 21.6825 53.2873 21.9113 53.0586C21.9113 53.0586 21.9113 53.0586 21.9113 53.0585L23.038 51.932L21.9112 53.8867Z" fill="black" stroke="black"/>
<path d="M15.3308 37.8823C15.3308 37.5589 15.5931 37.2966 15.9165 37.2966H17.51C17.8335 37.2966 18.0958 37.5589 18.0958 37.8823C18.0958 38.2059 17.8336 38.468 17.51 38.468H15.9165C15.593 38.468 15.3308 38.2059 15.3308 37.8823Z" fill="black" stroke="black"/>
<path d="M23.1215 23.8663L23.1216 23.8663C23.2361 23.9809 23.3851 24.0379 23.5357 24.0379C23.6863 24.0379 23.8354 23.9808 23.9499 23.8663C24.1786 23.6376 24.1786 23.2669 23.9499 23.0381L23.9499 23.038M23.1215 23.8663L24.3035 22.6845L23.9499 23.038M23.1215 23.8663L21.9948 22.7397C21.9948 22.7397 21.9947 22.7396 21.9947 22.7396M23.1215 23.8663L21.9947 22.7396M23.9499 23.038L22.8232 21.9113C22.8232 21.9113 22.8231 21.9113 22.8231 21.9112C22.5943 21.6826 22.2237 21.6826 21.9947 21.9112L23.9499 23.038ZM21.9947 22.7396C21.7661 22.5108 21.7661 22.14 21.9946 21.9114L21.9947 22.7396Z" fill="black" stroke="black"/>
<path d="M40.9094 40.7167L48.6428 44.6933C49.1793 44.9692 49.8322 44.7544 50.1049 44.2243C50.3792 43.691 50.1691 43.0365 49.6359 42.7622L41.9051 38.7869C41.9563 38.5323 41.9835 38.2691 41.9835 37.9997C41.9835 36.1796 40.7561 34.6418 39.0859 34.1679V23.1013C39.0859 22.5017 38.5998 22.0156 38.0002 22.0156C37.4006 22.0156 36.9144 22.5017 36.9144 23.1013V34.1679C35.5896 34.5438 34.5443 35.5891 34.1683 36.914H28.7793C28.1797 36.914 27.6936 37.4001 27.6936 37.9997C27.6936 38.5993 28.1797 39.0854 28.7793 39.0854H34.1683C34.6423 40.7557 36.1801 41.9832 38.0002 41.9832C39.1472 41.9834 40.182 41.4954 40.9094 40.7167ZM38 39.812C37.0009 39.812 36.1879 38.9991 36.1879 37.9999C36.1879 37.0007 37.0007 36.1877 38 36.1877C38.9992 36.1877 39.812 37.0006 39.812 37.9999C39.8121 38.9991 38.9992 39.812 38 39.812Z" fill="#FFC32D"/>
<mask id="path-10-inside-1" fill="white">
<path d="M66.032 36.912C66.6298 36.8663 67.0774 36.3446 67.0317 35.7465C66.473 28.4516 63.2053 21.6798 57.8304 16.6785C52.4273 11.6509 45.3848 8.88208 38 8.88208C21.9445 8.88208 8.88232 21.9442 8.88232 37.9998C8.88232 54.0553 21.9445 67.1174 38 67.1174C53.1848 67.1174 65.87 55.4199 67.0315 40.2532C67.0771 39.6554 66.6298 39.1337 66.0318 39.0878C65.4364 39.043 64.9122 39.4895 64.8663 40.0875C63.7941 54.0914 52.0813 64.946 38 64.946C23.1417 64.946 11.0537 52.858 11.0537 37.9998C11.0537 23.1415 23.1417 11.0535 38 11.0535C44.8339 11.0535 51.3512 13.6158 56.3512 18.2682C61.3255 22.8968 64.3497 29.163 64.8663 35.9124C64.9122 36.51 65.4319 36.9588 66.032 36.912Z"/>
</mask>
<path d="M66.032 36.912C66.6298 36.8663 67.0774 36.3446 67.0317 35.7465C66.473 28.4516 63.2053 21.6798 57.8304 16.6785C52.4273 11.6509 45.3848 8.88208 38 8.88208C21.9445 8.88208 8.88232 21.9442 8.88232 37.9998C8.88232 54.0553 21.9445 67.1174 38 67.1174C53.1848 67.1174 65.87 55.4199 67.0315 40.2532C67.0771 39.6554 66.6298 39.1337 66.0318 39.0878C65.4364 39.043 64.9122 39.4895 64.8663 40.0875C63.7941 54.0914 52.0813 64.946 38 64.946C23.1417 64.946 11.0537 52.858 11.0537 37.9998C11.0537 23.1415 23.1417 11.0535 38 11.0535C44.8339 11.0535 51.3512 13.6158 56.3512 18.2682C61.3255 22.8968 64.3497 29.163 64.8663 35.9124C64.9122 36.51 65.4319 36.9588 66.032 36.912Z" fill="black"/>
<path d="M67.0317 35.7465L106.915 32.6957L106.915 32.6924L67.0317 35.7465ZM57.8304 16.6785L30.582 45.962L30.5822 45.9622L57.8304 16.6785ZM67.0315 40.2532L106.915 43.3078L106.916 43.2953L67.0315 40.2532ZM66.0318 39.0878L69.0923 -0.794973L69.0604 -0.797421L69.0285 -0.799819L66.0318 39.0878ZM64.8663 40.0875L24.9836 37.027L24.9831 37.0337L64.8663 40.0875ZM56.3512 18.2682L83.5996 -11.0153L83.5993 -11.0155L56.3512 18.2682ZM64.8663 35.9124L24.983 38.9654L24.9838 38.9751L64.8663 35.9124ZM69.0836 76.7954C91.7097 75.0642 108.646 55.3189 106.915 32.6957L27.1482 38.7974C25.5091 17.3702 41.55 -1.3317 62.9803 -2.97141L69.0836 76.7954ZM106.915 32.6924C105.586 15.3387 97.782 -0.784862 85.0785 -12.6053L30.5822 45.9622C28.6287 44.1445 27.3601 41.5645 27.1484 38.8007L106.915 32.6924ZM85.0787 -12.6051C72.2689 -24.5246 55.4891 -31.1179 38 -31.1179V48.8821C35.2806 48.8821 32.5857 47.8264 30.582 45.962L85.0787 -12.6051ZM38 -31.1179C-0.146718 -31.1179 -31.1177 -0.147357 -31.1177 37.9998H48.8823C48.8823 44.0357 44.0358 48.8821 38 48.8821V-31.1179ZM-31.1177 37.9998C-31.1177 76.1469 -0.146718 107.117 38 107.117V27.1174C44.0358 27.1174 48.8823 31.9638 48.8823 37.9998H-31.1177ZM38 107.117C74.0143 107.117 104.151 79.3968 106.915 43.3078L27.1483 37.1987C27.5891 31.4429 32.3554 27.1174 38 27.1174V107.117ZM106.916 43.2953C108.64 20.6861 91.7187 0.941304 69.0923 -0.794973L62.9713 78.9705C41.541 77.326 25.5141 58.6246 27.1474 37.2112L106.916 43.2953ZM69.0285 -0.799819C46.5569 -2.48806 26.7276 14.2993 24.9836 37.027L104.749 43.148C103.097 64.6796 84.3159 80.5741 63.0351 78.9754L69.0285 -0.799819ZM24.9831 37.0337C25.5089 30.1665 31.1998 24.946 38 24.946V104.946C72.9629 104.946 102.079 78.0163 104.75 43.1413L24.9831 37.0337ZM38 24.946C45.2331 24.946 51.0537 30.7666 51.0537 37.9998H-28.9463C-28.9463 74.9494 1.05033 104.946 38 104.946V24.946ZM51.0537 37.9998C51.0537 45.2329 45.2331 51.0535 38 51.0535V-28.9465C1.05033 -28.9465 -28.9463 1.05009 -28.9463 37.9998H51.0537ZM38 51.0535C34.7299 51.0535 31.5099 49.7915 29.1031 47.552L83.5993 -11.0155C71.1925 -22.56 54.9378 -28.9465 38 -28.9465V51.0535ZM29.1028 47.5517C26.7513 45.3637 25.2366 42.2789 24.983 38.9654L104.75 32.8595C103.463 16.047 95.8997 0.42999 83.5996 -11.0153L29.1028 47.5517ZM24.9838 38.9751C26.7125 61.4868 46.3676 78.5656 69.1395 76.7911L62.9244 -2.96709C84.4962 -4.64808 103.112 11.5332 104.749 32.8498L24.9838 38.9751Z" fill="black" mask="url(#path-10-inside-1)"/>
<mask id="path-12-inside-2" fill="white">
<path d="M64.2047 11.7955C57.2052 4.79586 47.8989 0.941162 38 0.941162C30.886 0.941162 23.9751 2.9626 18.0142 6.78719C17.5095 7.11102 17.3629 7.78257 17.6867 8.28735C18.0105 8.79184 18.6819 8.93848 19.1869 8.6148C24.7971 5.01517 31.3026 3.11258 38 3.11258C47.3189 3.11258 56.0798 6.74145 62.6692 13.3308C69.2585 19.9202 72.8874 28.6811 72.8874 38C72.8874 57.2811 57.2839 72.8874 38 72.8874C34.5543 72.8874 31.1463 72.3842 27.8708 71.3922C27.2968 71.2182 26.6907 71.5424 26.517 72.1165C26.3431 72.6904 26.6674 73.2963 27.2412 73.4703C30.7211 74.5244 34.3409 75.0588 38 75.0588C58.4814 75.0588 75.0588 58.4841 75.0588 38C75.0588 28.1012 71.204 18.795 64.2047 11.7955Z"/>
</mask>
<path d="M64.2047 11.7955C57.2052 4.79586 47.8989 0.941162 38 0.941162C30.886 0.941162 23.9751 2.9626 18.0142 6.78719C17.5095 7.11102 17.3629 7.78257 17.6867 8.28735C18.0105 8.79184 18.6819 8.93848 19.1869 8.6148C24.7971 5.01517 31.3026 3.11258 38 3.11258C47.3189 3.11258 56.0798 6.74145 62.6692 13.3308C69.2585 19.9202 72.8874 28.6811 72.8874 38C72.8874 57.2811 57.2839 72.8874 38 72.8874C34.5543 72.8874 31.1463 72.3842 27.8708 71.3922C27.2968 71.2182 26.6907 71.5424 26.517 72.1165C26.3431 72.6904 26.6674 73.2963 27.2412 73.4703C30.7211 74.5244 34.3409 75.0588 38 75.0588C58.4814 75.0588 75.0588 58.4841 75.0588 38C75.0588 28.1012 71.204 18.795 64.2047 11.7955Z" fill="black"/>
<path d="M64.2047 11.7955L92.4892 -16.4885L64.2047 11.7955ZM18.0142 6.78719L-3.5863 -26.8791L-3.5888 -26.8775L18.0142 6.78719ZM17.6867 8.28735L-15.9808 29.8859L-15.9752 29.8947L17.6867 8.28735ZM19.1869 8.6148L40.7742 42.2895L40.781 42.2852L40.7877 42.2809L19.1869 8.6148ZM27.8708 71.3922L16.2662 109.672L16.2762 109.675L27.8708 71.3922ZM26.517 72.1165L64.7985 83.715L64.8007 83.7079L64.8028 83.7008L26.517 72.1165ZM27.2412 73.4703L15.634 111.749L15.6461 111.753L27.2412 73.4703ZM92.4892 -16.4885C77.988 -30.99 58.5073 -39.0588 38 -39.0588V40.9412C37.7284 40.9412 37.3258 40.8824 36.8823 40.6987C36.4389 40.515 36.1124 40.2718 35.9201 40.0795L92.4892 -16.4885ZM38 -39.0588C23.2646 -39.0588 8.85081 -34.8588 -3.5863 -26.8791L39.6146 40.4535C39.0995 40.784 38.5074 40.9412 38 40.9412V-39.0588ZM-3.5888 -26.8775C-22.6846 -14.6235 -28.2319 10.7892 -15.9808 29.8859L51.3542 -13.3112C62.9576 4.77596 57.7037 28.8456 39.6171 40.4519L-3.5888 -26.8775ZM-15.9752 29.8947C-3.71911 48.9883 21.685 54.5267 40.7742 42.2895L-2.40048 -25.0599C15.6789 -36.6498 39.7402 -31.4046 51.3486 -13.32L-15.9752 29.8947ZM40.7877 42.2809C39.9196 42.8378 38.9217 43.1126 38 43.1126V-36.8874C23.6836 -36.8874 9.67454 -32.8075 -2.41396 -25.0513L40.7877 42.2809ZM38 43.1126C37.4383 43.1126 36.7544 42.9973 36.0509 42.7059C35.3474 42.4145 34.7822 42.0124 34.3849 41.6151L90.9534 -14.9534C76.8625 -29.0444 57.9274 -36.8874 38 -36.8874V43.1126ZM34.3849 41.6151C33.9876 41.2178 33.5855 40.6526 33.2941 39.9491C33.0027 39.2456 32.8874 38.5617 32.8874 38H112.887C112.887 18.0726 105.044 -0.862529 90.9534 -14.9534L34.3849 41.6151ZM32.8874 38C32.8874 35.1918 35.1905 32.8874 38 32.8874V112.887C79.3774 112.887 112.887 79.3705 112.887 38H32.8874ZM38 32.8874C38.4568 32.8874 38.9568 32.9554 39.4654 33.1095L16.2762 109.675C23.3358 111.813 30.6518 112.887 38 112.887V32.8874ZM39.4754 33.1125C17.7542 26.5276 -5.19434 38.8036 -11.7689 60.5323L64.8028 83.7008C58.5757 104.281 36.8395 115.909 16.2662 109.672L39.4754 33.1125ZM-11.7646 60.5181C-18.3466 82.2428 -6.06525 105.169 15.634 111.749L38.8485 35.1915C59.4001 41.4233 71.0329 63.1379 64.7985 83.715L-11.7646 60.5181ZM15.6461 111.753C22.9096 113.953 30.4375 115.059 38 115.059V35.0588C38.2443 35.0588 38.5326 35.0958 38.8364 35.1878L15.6461 111.753ZM38 115.059C80.5708 115.059 115.059 80.5774 115.059 38H35.0588C35.0588 36.3908 36.3919 35.0588 38 35.0588V115.059ZM115.059 38C115.059 17.4924 106.99 -1.98778 92.4892 -16.4885L35.9201 40.0795C35.728 39.8873 35.4849 39.5611 35.3013 39.1178C35.1177 38.6746 35.0588 38.2719 35.0588 38H115.059Z" fill="black" mask="url(#path-12-inside-2)"/>
<mask id="path-14-inside-3" fill="white">
<path d="M23.9228 69.9287C11.2812 64.3466 3.11258 51.8139 3.11258 38.0004C3.11258 27.562 7.73205 17.7566 15.7864 11.0982C16.2485 10.7161 16.3135 10.0318 15.9313 9.56963C15.5494 9.10769 14.8651 9.0427 14.4028 9.42458C5.84784 16.4969 0.941162 26.9123 0.941162 38.0004C0.941162 52.6734 9.6177 65.9857 23.0456 71.9153C23.1882 71.9783 23.3371 72.0081 23.4836 72.0081C23.9006 72.0081 24.2981 71.7666 24.4774 71.3606C24.7196 70.8121 24.4713 70.1711 23.9228 69.9287Z"/>
</mask>
<path d="M23.9228 69.9287C11.2812 64.3466 3.11258 51.8139 3.11258 38.0004C3.11258 27.562 7.73205 17.7566 15.7864 11.0982C16.2485 10.7161 16.3135 10.0318 15.9313 9.56963C15.5494 9.10769 14.8651 9.0427 14.4028 9.42458C5.84784 16.4969 0.941162 26.9123 0.941162 38.0004C0.941162 52.6734 9.6177 65.9857 23.0456 71.9153C23.1882 71.9783 23.3371 72.0081 23.4836 72.0081C23.9006 72.0081 24.2981 71.7666 24.4774 71.3606C24.7196 70.8121 24.4713 70.1711 23.9228 69.9287Z" fill="black"/>
<path d="M15.7864 11.0982L41.2726 41.9276L41.2739 41.9265L15.7864 11.0982ZM15.9313 9.56963L-14.8979 35.0561L-14.8962 35.0581L15.9313 9.56963ZM14.4028 9.42458L-11.0695 -21.4164L-11.0765 -21.4106L-11.0836 -21.4047L14.4028 9.42458ZM23.0456 71.9153L39.2049 35.3246L39.2037 35.3241L23.0456 71.9153ZM24.4774 71.3606L61.0669 87.5226L61.0692 87.5174L24.4774 71.3606ZM40.0804 33.3373C41.9232 34.151 43.1126 35.9628 43.1126 38.0004H-36.8874C-36.8874 67.6651 -19.3609 94.5422 7.76533 106.52L40.0804 33.3373ZM43.1126 38.0004C43.1126 39.5043 42.3979 40.9973 41.2726 41.9276L-9.69983 -19.7312C-26.9338 -5.48413 -36.8874 15.6197 -36.8874 38.0004H43.1126ZM41.2739 41.9265C58.7603 27.4696 61.22 1.57143 46.7589 -15.9189L-14.8962 35.0581C-28.593 18.4923 -26.2633 -6.03729 -9.70108 -19.7302L41.2739 41.9265ZM46.7605 -15.9169C32.2989 -33.4101 6.40996 -35.8531 -11.0695 -21.4164L39.875 40.2655C23.3203 53.9384 -1.2 51.6255 -14.8979 35.0561L46.7605 -15.9169ZM-11.0836 -21.4047C-28.8188 -6.74316 -39.0588 14.971 -39.0588 38.0004H40.9412C40.9412 38.3812 40.8521 38.8234 40.6497 39.2532C40.4473 39.6829 40.1676 40.0236 39.8891 40.2539L-11.0836 -21.4047ZM-39.0588 38.0004C-39.0588 68.524 -21.0249 96.1808 6.88747 108.506L39.2037 35.3241C40.2603 35.7907 40.9412 36.8227 40.9412 38.0004H-39.0588ZM6.88627 108.506C12.2198 110.861 17.8828 112.008 23.4836 112.008V32.0081C28.7914 32.0081 34.1566 33.0952 39.2049 35.3246L6.88627 108.506ZM23.4836 112.008C39.1736 112.008 54.2608 102.931 61.0669 87.5226L-12.1121 55.1986C-5.66471 40.6023 8.62755 32.0081 23.4836 32.0081V112.008ZM61.0692 87.5174C70.2342 66.7605 60.8377 42.508 40.0877 33.3405L7.75798 106.517C-11.895 97.8342 -20.795 74.8637 -12.1144 55.2038L61.0692 87.5174Z" fill="black" mask="url(#path-14-inside-3)"/>
</g>
<defs>
<clipPath id="clip0">
<rect width="74.1176" height="74.1176" fill="white" transform="translate(0.941162 0.941162)"/>
</clipPath>
</defs>
</svg>
