<svg width="76" height="76" viewBox="0 0 76 76" fill="none" xmlns="http://www.w3.org/2000/svg">
<g clip-path="url(#clip0)">
<path d="M23.8885 26.4377C23.9573 30.1088 25.4428 33.5668 28.0715 36.1746C30.7001 38.7822 34.1699 40.2403 37.8417 40.2806C39.5535 40.2995 41.2378 40.0136 42.8335 39.4314C43.3969 39.2262 43.6869 38.603 43.4817 38.0398C43.2764 37.4765 42.6532 37.186 42.09 37.3915C40.74 37.8836 39.3227 38.1269 37.8655 38.1092C31.4751 38.0393 26.179 32.7852 26.0591 26.3883C25.9724 23.1378 27.2922 19.9412 29.6795 17.618C32.0676 15.2943 35.3004 14.0636 38.5564 14.238C44.7806 14.52 49.7798 19.6236 49.9377 25.8569C49.9747 27.3099 49.7542 28.7345 49.2829 30.0905C48.9698 30.9911 48.1108 31.596 47.1451 31.596C47.145 31.596 47.1448 31.596 47.1448 31.596C45.8934 31.596 44.8754 30.5779 44.8754 29.3264V20.3775C44.8754 19.7778 44.3894 19.2918 43.7897 19.2918C43.19 19.2918 42.7041 19.7778 42.7041 20.3775V21.16C41.4731 20.0029 39.8182 19.2918 37.9995 19.2918C34.2083 19.2918 31.1237 22.3764 31.1237 26.1677C31.1237 29.959 34.2083 33.0435 37.9995 33.0435C39.9628 33.0435 41.7352 32.215 42.9894 30.8909C43.6235 32.5699 45.2465 33.7675 47.1447 33.7675H47.1451C49.0342 33.7675 50.7175 32.5763 51.3338 30.8036C51.8915 29.1999 52.1519 27.5171 52.1086 25.8017C51.9219 18.4345 46.0123 12.4024 38.6642 12.0694C34.8141 11.8613 30.9866 13.3165 28.1655 16.0619C25.3448 18.8065 23.7861 22.5915 23.8885 26.4377V26.4377ZM37.9997 30.8722C35.4055 30.8722 33.2951 28.7618 33.2951 26.1677C33.2951 23.5735 35.4055 21.4632 37.9997 21.4632C40.5938 21.4632 42.7042 23.5735 42.7042 26.1677C42.7042 28.7618 40.5938 30.8722 37.9997 30.8722Z" fill="#FFC32D"/>
<mask id="path-2-inside-1" fill="white">
<path d="M74.6386 29.7656L44.1995 5.98119C40.6788 3.23041 35.7495 3.21579 32.2125 5.94616L1.36615 29.7598C1.10154 29.9623 0.940715 30.2878 0.941294 30.6211V40.1749C0.941294 40.7746 1.42724 41.2605 2.02695 41.2605C2.62667 41.2605 3.11262 40.7746 3.11262 40.1749V32.471L30.4137 47.7215L3.11262 68.798V45.2413C3.11262 44.6416 2.62667 44.1556 2.02695 44.1556C1.42724 44.1556 0.941294 44.6416 0.941294 45.2413V71.0077C0.93174 71.5904 1.44374 72.1035 2.02695 72.0933H73.9701C74.5493 72.1011 75.0679 71.59 75.0558 71.0077V30.7493C75.0818 30.3767 74.9395 29.9957 74.6386 29.7656V29.7656ZM5.20982 69.922L33.5395 48.0514C36.2904 45.9279 40.1242 45.9389 42.8626 48.0788L43.3854 48.4873C43.3859 48.4876 56.9957 59.1218 56.9967 59.1227C57.4695 59.4918 58.1514 59.4083 58.5207 58.9357C58.8898 58.4631 58.8062 57.7808 58.3337 57.4117L45.9964 47.7718L52.6715 44.0112C53.1937 43.7169 53.3787 43.0549 53.0844 42.5324C52.7903 42.0099 52.1285 41.8255 51.6056 42.1194L44.1418 46.3244C40.6487 43.6361 35.7971 43.6183 32.2848 46.2795L3.99244 30.4752L33.5396 7.66469C36.2906 5.54113 40.1244 5.55228 42.8627 7.69205L72.1266 30.5581L55.8938 39.7033C55.3716 39.9976 55.1866 40.6595 55.4809 41.1821C55.7769 41.7094 56.4468 41.8865 56.9597 41.5951L72.8846 32.6233V68.7813L62.212 60.442C61.7395 60.073 61.0572 60.1564 60.688 60.629C60.3188 61.1017 60.4025 61.7839 60.875 62.153L70.8175 69.9219H5.20982V69.922Z"/>
</mask>
<path d="M44.1995 5.98119L63.2864 -18.4461L63.2854 -18.4469L44.1995 5.98119ZM32.2125 5.94616L13.2695 -18.5928L13.2687 -18.5922L32.2125 5.94616ZM1.36615 29.7598L20.2066 54.3776L20.2584 54.338L20.31 54.2982L1.36615 29.7598ZM0.941294 30.6211H31.9413V30.5941L31.9412 30.5672L0.941294 30.6211ZM3.11262 32.471L18.2306 5.40727L-27.8874 -20.3545V32.471H3.11262ZM30.4137 47.7215L49.3574 72.26L86.5323 43.5609L45.5316 20.6578L30.4137 47.7215ZM3.11262 68.798H-27.8874V131.893L22.0563 93.3364L3.11262 68.798ZM0.941294 71.0077L31.9371 71.5158L31.9413 71.2617V71.0077H0.941294ZM2.02695 72.0933V41.0933H1.75768L1.48844 41.098L2.02695 72.0933ZM73.9701 72.0933L74.3885 41.0961L74.1793 41.0933H73.9701V72.0933ZM75.0558 71.0077H44.0558V71.3313L44.0625 71.6548L75.0558 71.0077ZM75.0558 30.7493L44.1313 28.5868L44.0558 29.6667V30.7493H75.0558ZM5.20982 69.922H-25.7902V133.017L24.1536 94.4604L5.20982 69.922ZM33.5395 48.0514L14.5967 23.5123L14.5958 23.513L33.5395 48.0514ZM42.8626 48.0788L23.7743 72.505L23.777 72.5071L42.8626 48.0788ZM43.3854 48.4873L24.2998 72.9156L25.2191 73.6338L26.1897 74.2808L43.3854 48.4873ZM56.9967 59.1227L36.8222 82.6597L37.3603 83.1209L37.919 83.5571L56.9967 59.1227ZM58.5207 58.9357L82.9487 78.0217L82.9523 78.017L58.5207 58.9357ZM58.3337 57.4117L39.247 81.8391L39.2487 81.8405L58.3337 57.4117ZM45.9964 47.7718L30.7803 20.763L-9.71853 43.5791L26.9097 72.1991L45.9964 47.7718ZM52.6715 44.0112L67.8875 71.0199L67.8894 71.0188L52.6715 44.0112ZM53.0844 42.5324L26.0718 57.7415L26.0732 57.744L53.0844 42.5324ZM51.6056 42.1194L36.4175 15.0949L36.4035 15.1028L36.3895 15.1107L51.6056 42.1194ZM44.1418 46.3244L25.2352 70.8914L41.4889 83.4001L59.3579 73.333L44.1418 46.3244ZM32.2848 46.2795L17.1667 73.3432L34.8559 83.2245L51.0058 70.9883L32.2848 46.2795ZM3.99244 30.4752L-14.9513 5.9367L-52.1261 34.6357L-11.1256 57.5389L3.99244 30.4752ZM33.5396 7.66469L14.5968 -16.8745L14.5959 -16.8738L33.5396 7.66469ZM42.8627 7.69205L23.7753 32.1189L23.7759 32.1193L42.8627 7.69205ZM72.1266 30.5581L87.3427 57.5668L127.841 34.7509L91.2135 6.13081L72.1266 30.5581ZM55.8938 39.7033L40.6778 12.6946L40.6758 12.6956L55.8938 39.7033ZM55.4809 41.1821L82.513 26.0076L82.5025 25.989L82.4921 25.9705L55.4809 41.1821ZM56.9597 41.5951L41.7435 14.5864L41.6946 14.614L41.6458 14.6417L56.9597 41.5951ZM72.8846 32.6233H103.885V-20.4226L57.6685 5.61462L72.8846 32.6233ZM72.8846 68.7813L53.7977 93.2086L103.885 132.345V68.7813H72.8846ZM62.212 60.442L81.2988 36.0147L81.2923 36.0096L62.212 60.442ZM60.688 60.629L36.26 41.5431L36.2564 41.5477L60.688 60.629ZM60.875 62.153L79.9619 37.7258L79.96 37.7243L60.875 62.153ZM70.8175 69.9219V100.922H160.84L89.9044 45.4946L70.8175 69.9219ZM5.20982 69.9219V38.9219H-25.7902V69.9219H5.20982ZM93.7255 5.33832L63.2864 -18.4461L25.1126 30.4084L55.5517 54.1928L93.7255 5.33832ZM63.2854 -18.4469C48.6033 -29.9182 28.02 -29.9796 13.2695 -18.5928L51.1556 30.4851C43.4789 36.4112 32.7544 36.379 25.1137 30.4092L63.2854 -18.4469ZM13.2687 -18.5922L-17.5777 5.22139L20.31 54.2982L51.1563 30.4845L13.2687 -18.5922ZM-17.4743 5.14195C-25.4 11.2076 -30.0761 20.6483 -30.0587 30.6749L31.9412 30.5672C31.9575 39.9274 27.6031 48.717 20.2066 54.3776L-17.4743 5.14195ZM-30.0587 30.6211V40.1749H31.9413V30.6211H-30.0587ZM-30.0587 40.1749C-30.0587 57.8954 -15.6936 72.2605 2.02695 72.2605V10.2605C18.5481 10.2605 31.9413 23.6538 31.9413 40.1749H-30.0587ZM2.02695 72.2605C19.7475 72.2605 34.1126 57.8954 34.1126 40.1749H-27.8874C-27.8874 23.6538 -14.4942 10.2605 2.02695 10.2605V72.2605ZM34.1126 40.1749V32.471H-27.8874V40.1749H34.1126ZM-12.0053 59.5348L15.2957 74.7853L45.5316 20.6578L18.2306 5.40727L-12.0053 59.5348ZM11.4699 23.1831L-15.8311 44.2595L22.0563 93.3364L49.3574 72.26L11.4699 23.1831ZM34.1126 68.798V45.2413H-27.8874V68.798H34.1126ZM34.1126 45.2413C34.1126 27.5208 19.7475 13.1556 2.02695 13.1556V75.1556C-14.4942 75.1556 -27.8874 61.7624 -27.8874 45.2413H34.1126ZM2.02695 13.1556C-15.6936 13.1556 -30.0587 27.5208 -30.0587 45.2413H31.9413C31.9413 61.7624 18.5481 75.1556 2.02695 75.1556V13.1556ZM-30.0587 45.2413V71.0077H31.9413V45.2413H-30.0587ZM-30.0545 70.4995C-30.3507 88.563 -15.5941 103.404 2.56547 103.089L1.48844 41.098C18.4816 40.8028 32.2141 54.6179 31.9371 71.5158L-30.0545 70.4995ZM2.02695 103.093H73.9701V41.0933H2.02695V103.093ZM73.5517 103.091C91.3073 103.33 106.435 88.8358 106.049 70.3605L44.0625 71.6548C43.8699 62.4302 47.8464 54.796 52.866 49.8C57.8675 44.8219 65.3861 40.9746 74.3885 41.0961L73.5517 103.091ZM106.056 71.0077V30.7493H44.0558V71.0077H106.056ZM105.98 32.9119C106.615 23.8367 103.31 12.6661 93.4708 5.14148L55.8063 54.3896C46.5694 47.3253 43.5488 36.9167 44.1313 28.5868L105.98 32.9119ZM24.1536 94.4604L52.4832 72.5899L14.5958 23.513L-13.7339 45.3836L24.1536 94.4604ZM52.4823 72.5906C44.0218 79.1216 32.2004 79.0896 23.7743 72.505L61.9508 23.6526C48.0481 12.7881 28.5591 12.7341 14.5967 23.5123L52.4823 72.5906ZM23.777 72.5071L24.2998 72.9156L62.471 24.059L61.9482 23.6505L23.777 72.5071ZM26.1897 74.2808C25.2457 73.6259 24.3198 72.9311 24.3129 72.9258C24.3107 72.924 24.3074 72.9214 24.3064 72.9207C24.305 72.9196 24.3042 72.9189 24.3047 72.9194C24.3055 72.9199 24.3072 72.9213 24.3103 72.9238C24.3164 72.9285 24.3258 72.9359 24.3387 72.9459C24.3642 72.9658 24.4022 72.9955 24.452 73.0345C24.5516 73.1123 24.6978 73.2265 24.8838 73.3719C25.256 73.6626 25.7876 74.078 26.4256 74.5765C27.7016 75.5735 29.4028 76.9028 31.1041 78.2322C32.8054 79.5615 34.5067 80.8908 35.7828 81.8879C36.4208 82.3864 36.9524 82.8018 37.3246 83.0926C37.5107 83.238 37.6568 83.3522 37.7563 83.43C37.8062 83.4689 37.8441 83.4986 37.8695 83.5185C37.8823 83.5285 37.8916 83.5357 37.8974 83.5402C37.8988 83.5414 37.9 83.5422 37.9008 83.5429C37.9013 83.5433 37.9015 83.5434 37.9018 83.5437C37.9021 83.5439 37.902 83.5438 37.9021 83.5439C37.9021 83.5439 37.9016 83.5435 37.9014 83.5434C37.901 83.543 37.8994 83.5418 37.8986 83.5412C37.897 83.5399 37.8918 83.5359 37.8884 83.5332C37.8782 83.5252 37.3404 83.0941 36.8222 82.6597L77.1713 35.5858C76.459 34.9753 71.9419 31.4592 69.2776 29.3774C67.5763 28.048 65.8749 26.7187 64.5989 25.7216C63.9609 25.2231 63.4292 24.8077 63.0569 24.5168C62.8708 24.3714 62.7245 24.2571 62.6247 24.1791C62.5748 24.1401 62.5364 24.1101 62.5104 24.0898C62.4974 24.0796 62.4873 24.0717 62.4803 24.0663C62.4769 24.0636 62.4737 24.0611 62.4711 24.0591C62.47 24.0582 62.468 24.0566 62.4657 24.0549C62.4643 24.0538 62.4607 24.0509 62.4582 24.049C62.4512 24.0435 61.5251 23.3486 60.5811 22.6937L26.1897 74.2808ZM37.919 83.5571C51.8701 94.4497 72.0307 91.9955 82.9487 78.0217L34.0927 39.8497C44.2722 26.8211 63.0689 24.534 76.0744 34.6883L37.919 83.5571ZM82.9523 78.017C93.8521 64.061 91.3897 43.8978 77.4186 32.983L39.2487 81.8405C26.2226 71.6638 23.9276 52.8651 34.0891 39.8544L82.9523 78.017ZM77.4204 32.9843L65.0831 23.3444L26.9097 72.1991L39.247 81.8391L77.4204 32.9843ZM61.2125 74.7805L67.8875 71.0199L37.4554 17.0025L30.7803 20.763L61.2125 74.7805ZM67.8894 71.0188C83.3254 62.3211 88.7896 42.7585 80.0957 27.3208L26.0732 57.744C17.9679 43.3514 23.0621 25.1126 37.4535 17.0035L67.8894 71.0188ZM80.0971 27.3233C71.3839 11.8478 51.8148 6.44143 36.4175 15.0949L66.7938 69.1438C52.4422 77.2096 34.1967 72.172 26.0718 57.7415L80.0971 27.3233ZM36.3895 15.1107L28.9256 19.3157L59.3579 73.333L66.8218 69.1281L36.3895 15.1107ZM63.0484 21.7573C48.4783 10.5443 28.2158 10.4694 13.5638 21.5707L51.0058 70.9883C43.3784 76.7673 32.8191 76.728 25.2352 70.8914L63.0484 21.7573ZM47.4028 19.2158L19.1105 3.41143L-11.1256 57.5389L17.1667 73.3432L47.4028 19.2158ZM22.9361 55.0136L52.4834 32.2031L14.5959 -16.8738L-14.9513 5.9367L22.9361 55.0136ZM52.4825 32.2038C44.0211 38.7355 32.2002 38.7022 23.7753 32.1189L61.9502 -16.7348C48.0486 -27.5976 28.5601 -27.6533 14.5968 -16.8745L52.4825 32.2038ZM23.7759 32.1193L53.0398 54.9854L91.2135 6.13081L61.9496 -16.7352L23.7759 32.1193ZM56.9106 3.54938L40.6778 12.6946L71.1099 66.712L87.3427 57.5668L56.9106 3.54938ZM40.6758 12.6956C25.2399 21.3933 19.7757 40.956 28.4696 56.3937L82.4921 25.9705C90.5974 40.3631 85.5032 58.6018 71.1118 66.7109L40.6758 12.6956ZM28.4487 56.3566C37.251 72.0371 56.9896 77.2322 72.2736 68.5484L41.6458 14.6417C55.904 6.54072 74.3027 11.3818 82.513 26.0076L28.4487 56.3566ZM72.1758 68.6038L88.1007 59.632L57.6685 5.61462L41.7435 14.5864L72.1758 68.6038ZM41.8846 32.6233V68.7813H103.885V32.6233H41.8846ZM91.9714 44.3541L81.2988 36.0147L43.1251 84.8693L53.7977 93.2086L91.9714 44.3541ZM81.2923 36.0096C67.3429 25.1159 47.1798 27.5669 36.26 41.5431L85.1159 79.715C74.9347 92.7459 56.1361 95.0301 43.1316 84.8744L81.2923 36.0096ZM36.2564 41.5477C25.3567 55.5036 27.8188 75.6668 41.79 86.5818L79.96 37.7243C92.9862 47.901 95.281 66.6997 85.1196 79.7104L36.2564 41.5477ZM41.7881 86.5802L51.7306 94.3491L89.9044 45.4946L79.9619 37.7258L41.7881 86.5802ZM70.8175 38.9219H5.20982V100.922H70.8175V38.9219ZM-25.7902 69.9219V69.922H36.2098V69.9219H-25.7902Z" fill="black" mask="url(#path-2-inside-1)"/>
</g>
<defs>
<clipPath id="clip0">
<rect width="74.1176" height="74.1176" fill="white" transform="translate(0.941162 0.941406)"/>
</clipPath>
</defs>
</svg>
