<svg width="76" height="76" viewBox="0 0 76 76" fill="none" xmlns="http://www.w3.org/2000/svg">
<g clip-path="url(#clip0)">
<path d="M61.2084 18.3477C60.6088 18.3477 60.1227 18.8338 60.1227 19.4334V68.1718C60.1227 68.213 60.0893 68.2464 60.048 68.2464H21.754C21.1544 68.2464 20.6683 68.7326 20.6683 69.3322C20.6683 69.9318 21.1544 70.4179 21.754 70.4179H60.048C61.2866 70.4179 62.2942 69.4103 62.2942 68.1718V19.4334C62.2942 18.8338 61.808 18.3477 61.2084 18.3477Z" fill="black"/>
<path d="M64.6897 5.58303H54.6955L51.0517 1.93925C50.4082 1.29578 49.5528 0.941406 48.6429 0.941406H11.3101C10.0715 0.941406 9.06396 1.94894 9.06396 3.18752V68.1713C9.06396 69.4099 10.0715 70.4174 11.3101 70.4174H13.7056V72.8129C13.7056 74.0515 14.7131 75.0591 15.9517 75.0591H64.6897C65.9282 75.0591 66.9358 74.0515 66.9358 72.8129V7.82929C66.9358 6.59072 65.9282 5.58303 64.6897 5.58303ZM49.5294 3.48776L59.7476 13.706H49.6041C49.5628 13.706 49.5294 13.6726 49.5294 13.6313V3.48776ZM64.7644 72.8131C64.7644 72.8543 64.7309 72.8878 64.6897 72.8878H15.9517C15.9105 72.8878 15.877 72.8543 15.877 72.8131V70.4176H17.1118C17.7114 70.4176 18.1975 69.9315 18.1975 69.3319C18.1975 68.7323 17.7114 68.2462 17.1118 68.2462H11.3101C11.2688 68.2462 11.2354 68.2127 11.2354 68.1715V3.18752C11.2354 3.14627 11.2688 3.11283 11.3101 3.11283H47.358V13.6313C47.358 14.8699 48.3655 15.8774 49.6041 15.8774H61.2084C61.808 15.8774 62.2941 15.3913 62.2941 14.7917V14.5927C62.2941 13.6829 61.9398 12.8273 61.2963 12.1839L56.8669 7.75445H64.6897C64.7309 7.75445 64.7644 7.78789 64.7644 7.82915V72.8131Z" fill="black"/>
<path d="M30.6446 13.3444C30.2206 12.9204 29.5331 12.9204 29.1093 13.3444L22.9672 19.4865C22.9379 19.5155 22.8906 19.5155 22.8615 19.4865L20.413 17.038H22.2978C22.8974 17.038 23.3835 16.5518 23.3835 15.9522C23.3835 15.3526 22.8974 14.8665 22.2978 14.8665H19.433C19.0858 14.8665 18.7581 14.948 18.4642 15.0893L17.8798 14.5049C17.4558 14.0809 16.7684 14.0809 16.3445 14.5049C15.9205 14.9289 15.9205 15.6164 16.3445 16.0403L17.198 16.8938C17.1911 16.9657 17.187 17.0387 17.187 17.1125V24.0751C17.187 25.3137 18.1945 26.3212 19.4331 26.3212H26.3957C27.6343 26.3212 28.6418 25.3137 28.6418 24.0751V16.8825L30.6446 14.8797C31.0686 14.4557 31.0686 13.7682 30.6446 13.3444ZM26.4704 24.0752C26.4704 24.1165 26.437 24.1499 26.3957 24.1499H19.4331C19.3919 24.1499 19.3584 24.1165 19.3584 24.0752V19.0539L21.3262 21.0216C21.7641 21.4595 22.3392 21.6786 22.9145 21.6786C23.4896 21.6786 24.0648 21.4595 24.5027 21.0216L26.4704 19.0539V24.0752Z" fill="#FFC32D"/>
<path d="M26.3957 29.9521H19.4331C18.1946 29.9521 17.187 30.9597 17.187 32.1983V39.1608C17.187 40.3994 18.1946 41.407 19.4331 41.407H26.3957C27.6343 41.407 28.6418 40.3994 28.6418 39.1608V32.1983C28.6418 30.9598 27.6343 29.9521 26.3957 29.9521ZM26.4704 39.1608C26.4704 39.2021 26.437 39.2355 26.3957 39.2355H19.4331C19.3919 39.2355 19.3584 39.2021 19.3584 39.1608V32.1983C19.3584 32.157 19.3919 32.1236 19.4331 32.1236H26.3957C26.437 32.1236 26.4704 32.157 26.4704 32.1983V39.1608Z" fill="black"/>
<path d="M26.3957 45.0376H19.4331C18.1946 45.0376 17.187 46.0451 17.187 47.2837V54.2463C17.187 55.4849 18.1946 56.4924 19.4331 56.4924H26.3957C27.6343 56.4924 28.6418 55.4847 28.6418 54.2463V47.2837C28.6418 46.0451 27.6343 45.0376 26.3957 45.0376ZM26.4704 54.2463C26.4704 54.2876 26.437 54.321 26.3957 54.321H19.4331C19.3919 54.321 19.3584 54.2874 19.3584 54.2463V47.2837C19.3584 47.2425 19.3919 47.209 19.4331 47.209H26.3957C26.437 47.209 26.4704 47.2425 26.4704 47.2837V54.2463Z" fill="black"/>
<path d="M43.802 17.1875H33.3582C32.7586 17.1875 32.2725 17.6736 32.2725 18.2732C32.2725 18.8728 32.7584 19.3589 33.3582 19.3589H43.802C44.4016 19.3589 44.8877 18.8728 44.8877 18.2732C44.8877 17.6736 44.4016 17.1875 43.802 17.1875Z" fill="black"/>
<path d="M53.0854 21.8291H33.3582C32.7586 21.8291 32.2725 22.3152 32.2725 22.9148C32.2725 23.5144 32.7584 24.0005 33.3582 24.0005H53.0854C53.685 24.0005 54.1711 23.5144 54.1711 22.9148C54.1711 22.3152 53.6851 21.8291 53.0854 21.8291Z" fill="black"/>
<path d="M43.802 32.2729H33.3582C32.7586 32.2729 32.2725 32.7591 32.2725 33.3587C32.2725 33.9583 32.7584 34.4444 33.3582 34.4444H43.802C44.4016 34.4444 44.8877 33.9583 44.8877 33.3587C44.8877 32.7591 44.4016 32.2729 43.802 32.2729Z" fill="black"/>
<path d="M53.0854 36.9146H33.3582C32.7586 36.9146 32.2725 37.4007 32.2725 38.0003C32.2725 38.5999 32.7584 39.086 33.3582 39.086H53.0854C53.685 39.086 54.1711 38.5999 54.1711 38.0003C54.1711 37.4007 53.6851 36.9146 53.0854 36.9146Z" fill="black"/>
<path d="M43.802 47.3584H33.3582C32.7586 47.3584 32.2725 47.8445 32.2725 48.4441C32.2725 49.0437 32.7584 49.5298 33.3582 49.5298H43.802C44.4016 49.5298 44.8877 49.0437 44.8877 48.4441C44.8877 47.8445 44.4016 47.3584 43.802 47.3584Z" fill="black"/>
<path d="M53.0854 52H33.3582C32.7586 52 32.2725 52.4861 32.2725 53.0857C32.2725 53.6853 32.7584 54.1714 33.3582 54.1714H53.0854C53.685 54.1714 54.1711 53.6853 54.1711 53.0857C54.1711 52.4861 53.6851 52 53.0854 52Z" fill="black"/>
</g>
<defs>
<clipPath id="clip0">
<rect width="74.1176" height="74.1176" fill="white" transform="translate(0.941162 0.941406)"/>
</clipPath>
</defs>
</svg>
