<svg width="75" height="75" viewBox="0 0 75 75" fill="none" xmlns="http://www.w3.org/2000/svg">
<g clip-path="url(#clip0)">
<path d="M52.7077 0.412109H22.5861C19.392 0.412109 16.7935 3.01067 16.7935 6.20473V64.1309C16.7935 67.325 19.392 69.9234 22.5861 69.9234H52.7077C55.9017 69.9234 58.5003 67.325 58.5003 64.1309V6.20473C58.5003 3.01067 55.9017 0.412109 52.7077 0.412109ZM56.1832 64.1309C56.1832 66.0471 54.6238 67.6064 52.7077 67.6064H22.5861C20.6699 67.6064 19.1105 66.0471 19.1105 64.1309V6.20473C19.1105 4.28853 20.6699 2.72916 22.5861 2.72916H52.7077C54.6238 2.72916 56.1832 4.28853 56.1832 6.20473V64.1309Z" fill="black"/>
<path d="M57.3417 62.9702C56.701 62.9702 56.1832 63.488 56.1832 64.1288V68.7385C56.1832 70.6547 54.6238 72.2141 52.7077 72.2141H22.5861C20.6699 72.2141 19.1105 70.6547 19.1105 68.7385V64.1288C19.1105 63.488 18.5926 62.9702 17.952 62.9702C17.3113 62.9702 16.7935 63.488 16.7935 64.1288V68.7373C16.7935 71.9314 19.392 74.5299 22.5861 74.5299H52.7077C55.9017 74.5299 58.5003 71.9314 58.5003 68.7385V64.1288C58.5003 63.488 57.9824 62.9702 57.3417 62.9702Z" fill="black"/>
<path d="M57.3417 58.3105H17.952C17.3113 58.3105 16.7935 58.8284 16.7935 59.4691C16.7935 60.1097 17.3113 60.6276 17.952 60.6276H57.3417C57.9824 60.6276 58.5003 60.1097 58.5003 59.4691C58.5003 58.8284 57.9824 58.3105 57.3417 58.3105Z" fill="black"/>
<path d="M37.6262 60.6274C35.71 60.6274 34.1506 62.1868 34.1506 64.103C34.1506 66.0192 35.71 67.5786 37.6262 67.5786C39.5435 67.5786 41.1017 66.0192 41.1017 64.103C41.1017 62.1868 39.5424 60.6274 37.6262 60.6274ZM37.6262 65.2615C36.9867 65.2615 36.4676 64.7425 36.4676 64.103C36.4676 63.4635 36.9867 62.9445 37.6262 62.9445C38.2657 62.9445 38.7847 63.4635 38.7847 64.103C38.7847 64.7425 38.2657 65.2615 37.6262 65.2615Z" fill="black"/>
<path d="M38.6247 12.5197C38.2818 11.981 37.567 11.8223 37.0248 12.164L24.281 20.2737C23.7411 20.6178 23.5813 21.3338 23.9254 21.8736C24.1466 22.2201 24.5209 22.4101 24.9043 22.4101C25.1175 22.4101 25.3318 22.3509 25.5252 22.2293L38.269 14.1197C38.8088 13.7756 38.9688 13.0596 38.6247 12.5197Z" fill="#FFC32D"/>
<path d="M51.0126 20.2739L38.2689 12.1642C37.7279 11.8236 37.0131 11.9824 36.669 12.5199C36.3249 13.0598 36.4849 13.7758 37.0247 14.1198L49.7685 22.2295C49.9619 22.3511 50.1762 22.4102 50.3894 22.4102C50.7717 22.4102 51.147 22.2202 51.3683 21.8738C51.7124 21.334 51.5526 20.618 51.0126 20.2739Z" fill="#FFC32D"/>
<path d="M38.6247 17.154C38.2818 16.6153 37.567 16.4554 37.0248 16.7983L24.281 24.908C23.7411 25.252 23.5813 25.968 23.9254 26.5079C24.1466 26.8543 24.5209 27.0443 24.9043 27.0443C25.1175 27.0443 25.3318 26.9852 25.5252 26.8636L38.269 18.7539C38.8088 18.4098 38.9688 17.6939 38.6247 17.154Z" fill="#FFC32D"/>
<path d="M51.0126 24.9081L38.2689 16.7985C37.7279 16.4579 37.0131 16.6166 36.669 17.1542C36.3249 17.694 36.4849 18.41 37.0247 18.7541L49.7685 26.8638C49.9619 26.9854 50.1762 27.0444 50.3894 27.0444C50.7717 27.0444 51.147 26.8545 51.3683 26.5081C51.7124 25.9682 51.5526 25.2522 51.0126 24.9081Z" fill="#FFC32D"/>
<path d="M24.9031 20.0933C24.2625 20.0933 23.7446 20.6111 23.7446 21.2518V25.8859C23.7446 26.5265 24.2625 27.0444 24.9031 27.0444C25.5438 27.0444 26.0616 26.5265 26.0616 25.8859V21.2518C26.0616 20.6111 25.5438 20.0933 24.9031 20.0933Z" fill="#FFC32D"/>
<path d="M50.3907 20.0933C49.75 20.0933 49.2322 20.6111 49.2322 21.2518V25.8859C49.2322 26.5265 49.75 27.0444 50.3907 27.0444C51.0314 27.0444 51.5493 26.5265 51.5493 25.8859V21.2518C51.5493 20.6111 51.0314 20.0933 50.3907 20.0933Z" fill="#FFC32D"/>
<path d="M27.2203 23.2534C26.5796 23.2534 26.0618 23.7713 26.0618 24.412V38.6294C26.0618 39.27 26.5796 39.7879 27.2203 39.7879C27.8609 39.7879 28.3788 39.27 28.3788 38.6294V24.412C28.3788 23.7713 27.8609 23.2534 27.2203 23.2534Z" fill="#FFC32D"/>
<path d="M51.5492 37.4707H23.7446C23.104 37.4707 22.5862 37.9886 22.5862 38.6292C22.5862 39.2699 23.104 39.7878 23.7446 39.7878H51.5492C52.1898 39.7878 52.7078 39.2699 52.7078 38.6292C52.7078 37.9886 52.1898 37.4707 51.5492 37.4707Z" fill="#FFC32D"/>
<path d="M48.0736 23.2534C47.4329 23.2534 46.915 23.7713 46.915 24.412V38.6294C46.915 39.27 47.4329 39.7879 48.0736 39.7879C48.7142 39.7879 49.2321 39.27 49.2321 38.6294V24.412C49.2321 23.7713 48.7142 23.2534 48.0736 23.2534Z" fill="#FFC32D"/>
<path d="M39.964 28.2026H35.3298C34.6892 28.2026 34.1714 28.7205 34.1714 29.3612V38.6293C34.1714 39.27 34.6892 39.7878 35.3298 39.7878H39.964C40.6046 39.7878 41.1225 39.27 41.1225 38.6293V29.3612C41.1225 28.7205 40.6046 28.2026 39.964 28.2026ZM38.8055 37.4708H36.4884V30.5196H38.8055V37.4708Z" fill="#FFC32D"/>
<path d="M36.4884 43.2637H23.7446C23.104 43.2637 22.5862 43.7815 22.5862 44.4222C22.5862 45.0628 23.104 45.5807 23.7446 45.5807H36.4884C37.129 45.5807 37.647 45.0628 37.647 44.4222C37.647 43.7815 37.129 43.2637 36.4884 43.2637Z" fill="black"/>
<path d="M30.6958 46.7393H23.7446C23.104 46.7393 22.5862 47.2571 22.5862 47.8978C22.5862 48.5384 23.104 49.0563 23.7446 49.0563H30.6958C31.3364 49.0563 31.8543 48.5384 31.8543 47.8978C31.8543 47.2571 31.3364 46.7393 30.6958 46.7393Z" fill="black"/>
<path d="M51.5493 43.2637H42.2811C41.6405 43.2637 41.1226 43.7815 41.1226 44.4222V47.8978C41.1226 48.5384 41.6405 49.0563 42.2811 49.0563H51.5493C52.19 49.0563 52.7078 48.5384 52.7078 47.8978V44.4222C52.7078 43.7815 52.19 43.2637 51.5493 43.2637ZM50.3908 46.7392H43.4396V45.5807H50.3908V46.7392Z" fill="black"/>
</g>
<defs>
<clipPath id="clip0">
<rect width="74.1176" height="74.1176" fill="white" transform="translate(0.588135 0.412109)"/>
</clipPath>
</defs>
</svg>
