<svg width="67" height="66" viewBox="0 0 67 66" fill="none" xmlns="http://www.w3.org/2000/svg">
<g clip-path="url(#clip0)">
<path d="M58.8243 46.5527C58.463 46.4029 58.0471 46.4857 57.7704 46.7622L47.2027 57.3299C46.9262 57.6066 46.8435 58.0225 46.9933 58.3838C47.1427 58.7453 47.4956 58.9807 47.8866 58.9807H58.4544C58.9885 58.9807 59.4214 58.5478 59.4214 58.0137V47.446C59.4212 47.055 59.1856 46.7024 58.8243 46.5527ZM50.2208 57.0468L57.4871 49.7806V57.0468H50.2208Z" fill="#FFC32D"/>
<path d="M65.815 31.052C65.4536 30.9023 65.0378 30.985 64.7611 31.2615L61.865 34.1576V14.4661C61.865 13.932 61.432 13.4991 60.898 13.4991H53.4681L56.1651 10.8021C56.1655 10.8017 56.1659 10.8012 56.1663 10.8007L58.765 8.20198C59.3218 7.6452 59.6285 6.90456 59.6285 6.11706C59.6285 5.32956 59.3218 4.58915 58.765 4.03211L55.7599 1.027C55.2031 0.470211 54.4625 0.163574 53.675 0.163574C52.8874 0.163574 52.1469 0.470211 51.59 1.027L48.99 3.62704L45.8482 6.76881L39.118 13.499H9.10189V3.93252C9.10189 3.39838 8.66889 2.96551 8.13488 2.96551C3.94128 2.96577 0.529419 6.37737 0.529419 10.5712V51.643C0.529419 51.7144 0.537654 51.7839 0.552323 51.8508C0.68589 53.6303 1.45576 55.2836 2.7424 56.5388C4.1177 57.8801 5.9332 58.6188 7.85459 58.6188H37.4037L31.8385 64.184C31.562 64.4606 31.4793 64.8764 31.6289 65.2379C31.7786 65.5992 32.1313 65.8348 32.5223 65.8348H65.4449C65.9789 65.8348 66.4119 65.4019 66.4119 64.8678V31.9455C66.4119 31.5544 66.1761 31.2017 65.815 31.052ZM52.9579 2.3947C53.3532 1.99915 53.9972 1.99915 54.3925 2.3947L57.3977 5.39994C57.7933 5.79537 57.7933 6.43914 57.3977 6.83469L55.4816 8.75092L51.0415 4.31095L52.9579 2.3947ZM49.6739 5.67853L54.1139 10.1184L52.3396 11.8927L47.8999 7.45282L49.6739 5.67853ZM64.4781 42.8111H62.694C62.16 42.8111 61.727 43.244 61.727 43.7782C61.727 44.3123 62.16 44.7452 62.694 44.7452H64.4781V47.6592H62.694C62.16 47.6592 61.727 48.0921 61.727 48.6262C61.727 49.1603 62.16 49.5932 62.694 49.5932H64.4781V52.5071H62.694C62.16 52.5071 61.727 52.94 61.727 53.4741C61.727 54.0082 62.16 54.4411 62.694 54.4411H64.4781V57.3551H62.694C62.16 57.3551 61.727 57.7881 61.727 58.3221C61.727 58.8562 62.16 59.2891 62.694 59.2891H64.4781V63.9011H34.8568L44.6243 54.1337C45.0021 53.7559 45.0021 53.1438 44.6243 52.7661C44.581 52.7227 44.5344 52.6852 44.4856 52.6517C44.1091 52.3938 43.5911 52.4318 43.2567 52.7661L39.3377 56.6851H7.85473C4.92193 56.6851 2.56097 54.3954 2.46807 51.4679C2.47359 51.2841 2.48788 51.1019 2.51079 50.9218C2.51091 50.9208 2.51104 50.9197 2.51117 50.9187C2.52198 50.8331 2.53497 50.7479 2.54977 50.6633C2.55144 50.6536 2.55324 50.644 2.55492 50.6343C2.56843 50.5588 2.58362 50.4837 2.60021 50.4088C2.60485 50.3879 2.60974 50.367 2.61462 50.3463C2.62929 50.283 2.64512 50.2201 2.6621 50.1575C2.67137 50.1235 2.68102 50.0899 2.69093 50.056C2.70509 50.0069 2.71975 49.9578 2.73532 49.9094C2.75089 49.8609 2.76749 49.8128 2.78435 49.7649C2.79606 49.7313 2.80764 49.6977 2.82025 49.6644C2.8438 49.6011 2.86876 49.5384 2.8945 49.4762C2.90184 49.4583 2.90904 49.4402 2.91663 49.4223C2.9497 49.3451 2.98406 49.2688 3.02034 49.1934C3.02189 49.1902 3.0233 49.1869 3.02485 49.1837C3.78121 47.6185 5.2359 46.4516 6.98166 46.0895C6.98655 46.0884 6.99144 46.0873 6.99633 46.0862C7.07636 46.0699 7.15717 46.0559 7.2385 46.0429C7.252 46.0407 7.26552 46.038 7.27929 46.0359C7.35276 46.0247 7.42701 46.016 7.50125 46.0076C7.5221 46.0053 7.54282 46.002 7.56379 46C7.63546 45.9928 7.70778 45.9881 7.78009 45.9835C7.803 45.9821 7.8259 45.9797 7.84881 45.9786C7.94353 45.9738 8.03898 45.9713 8.13488 45.9713C8.66889 45.9713 9.10189 45.5385 9.10189 45.0043V37.9929C9.10189 37.4587 8.66889 37.0259 8.13488 37.0259C7.60085 37.0259 7.16785 37.4587 7.16785 37.9929V44.0982C5.53494 44.3047 4.01926 45.033 2.82411 46.2001C2.69839 46.3229 2.57924 46.4505 2.46318 46.5802V10.5712C2.46318 7.77367 4.49961 5.44241 7.16773 4.982V14.4661V34.1249V34.1251C7.16773 34.6591 7.60072 35.0921 8.13473 35.0921C8.66874 35.0921 9.10174 34.6591 9.10174 34.1251V34.1249V15.4332H37.1842L31.8384 20.7788C31.4607 21.1566 31.4607 21.7688 31.8384 22.1464C32.2161 22.524 32.8283 22.524 33.2058 22.1464L40.2024 15.1499C40.2027 15.1496 40.2028 15.1494 40.203 15.1493L46.532 8.82032L50.9717 13.2603L50.4508 13.7812C50.4505 13.7816 50.4499 13.7819 50.4496 13.7824L30.9514 33.2808L26.5116 28.8409L30.3549 24.9975C30.7325 24.6197 30.7325 24.0076 30.3549 23.6299C29.9772 23.2524 29.365 23.2524 28.9875 23.6299L24.4602 28.1571C24.436 28.1812 24.4134 28.2069 24.3922 28.2331C24.3851 28.2419 24.3788 28.2512 24.3721 28.2604C24.3584 28.2785 24.345 28.2968 24.3326 28.3159C24.3255 28.3269 24.319 28.3383 24.3124 28.3497C24.3017 28.3677 24.2914 28.386 24.282 28.4047C24.2758 28.4167 24.2703 28.429 24.2646 28.4415C24.256 28.4605 24.248 28.4798 24.2407 28.4991C24.2381 28.5059 24.2348 28.5123 24.2324 28.5191L22.3483 33.8561L21.0639 37.4949C21.0469 37.5433 21.0347 37.5924 21.0256 37.6419H17.8097C17.2757 37.6419 16.8427 38.0748 16.8427 38.609C16.8427 39.1431 17.2757 39.576 17.8097 39.576H44.5891C45.1232 39.576 45.5561 39.1431 45.5561 38.609C45.5561 38.0748 45.1232 37.6419 44.5891 37.6419H25.376L31.2733 35.5602C31.2781 35.5585 31.2828 35.556 31.2877 35.5542C31.3105 35.5457 31.3331 35.5361 31.3553 35.526C31.3642 35.5219 31.3731 35.518 31.3818 35.5138C31.4049 35.5022 31.4277 35.4894 31.4501 35.4758C31.4572 35.4714 31.4647 35.4675 31.4718 35.4629C31.4951 35.448 31.5178 35.4317 31.54 35.4145C31.5455 35.4102 31.5513 35.4065 31.5567 35.4021C31.5837 35.3805 31.61 35.3571 31.635 35.3322L51.5341 15.4332H59.9309V36.0918L46.0986 49.9242C45.721 50.302 45.721 50.9141 46.0986 51.2917C46.1221 51.3152 46.1467 51.3374 46.1721 51.3581C46.3494 51.5026 46.566 51.575 46.7824 51.575C46.9988 51.575 47.2156 51.5026 47.3927 51.3581C47.418 51.3376 47.4426 51.3152 47.4662 51.2917C47.4666 51.2913 47.4662 51.2917 47.4666 51.2913L64.4781 34.2796V42.8111ZM29.1828 34.247L26.4128 35.2248L24.5674 33.3793L25.5452 30.6094L29.1828 34.247Z" fill="black"/>
</g>
<defs>
<clipPath id="clip0">
<rect width="65.8824" height="65.8824" fill="white" transform="translate(0.529419 0.0585938)"/>
</clipPath>
</defs>
</svg>
