<svg width="76" height="76" viewBox="0 0 76 76" fill="none" xmlns="http://www.w3.org/2000/svg">
<path d="M69.2684 39.158H64.658C64.3292 38.1658 63.9302 37.1984 63.464 36.2628L66.7194 33.0086C66.827 32.901 66.9125 32.7733 66.9707 32.6327C67.029 32.4921 67.059 32.3414 67.059 32.1892C67.059 32.0371 67.029 31.8863 66.9707 31.7458C66.9125 31.6052 66.827 31.4775 66.7194 31.3699L60.4274 25.0757C61.0517 25.1912 61.685 25.2502 62.3197 25.2517C64.041 25.2536 65.7359 24.8289 67.2528 24.0154C68.7697 23.202 70.0613 22.0252 71.0121 20.5904C71.9629 19.1556 72.5432 17.5074 72.7011 15.7934C72.8589 14.0794 72.5895 12.3531 71.9168 10.7687C71.8429 10.594 71.7272 10.4402 71.5798 10.3207C71.4324 10.2013 71.258 10.1199 71.0718 10.0836C70.8856 10.0473 70.6934 10.0574 70.512 10.1128C70.3306 10.1682 70.1656 10.2674 70.0315 10.4015L65.9933 14.4409C65.8827 14.5478 65.7944 14.6756 65.7337 14.8169C65.673 14.9581 65.641 15.1101 65.6397 15.2639C65.6384 15.4177 65.6677 15.5702 65.7259 15.7125C65.7842 15.8548 65.8701 15.9841 65.9789 16.0929C66.0876 16.2016 66.2169 16.2875 66.3592 16.3458C66.5015 16.4041 66.6541 16.4333 66.8078 16.432C66.9616 16.4307 67.1136 16.3987 67.2549 16.338C67.3961 16.2773 67.524 16.1891 67.6308 16.0785L70.3036 13.4068C70.6075 15.1055 70.3613 16.857 69.601 18.4062C68.8405 19.9554 67.6056 21.2216 66.0759 22.0203C64.5461 22.819 62.8013 23.1088 61.0955 22.8473C59.3896 22.5858 57.8117 21.7868 56.5914 20.5665C55.3711 19.3462 54.5721 17.7683 54.3107 16.0625C54.0492 14.3567 54.3389 12.6119 55.1377 11.0821C55.9365 9.5524 57.2026 8.31741 58.7517 7.55702C60.3009 6.79661 62.0524 6.55044 63.7512 6.85432L58.2294 12.3773C58.0123 12.5944 57.8903 12.8889 57.8903 13.196C57.8903 13.5031 58.0123 13.7976 58.2294 14.0148L63.1432 18.9285C63.3616 19.1395 63.6541 19.2562 63.9578 19.2536C64.2615 19.2509 64.5519 19.1291 64.7666 18.9144C64.9813 18.6997 65.1031 18.4093 65.1057 18.1057C65.1084 17.8019 64.9917 17.5094 64.7807 17.291L60.6857 13.196L66.7564 7.12648C66.8906 6.99236 66.9897 6.82736 67.0452 6.64596C67.1006 6.46456 67.1106 6.27233 67.0744 6.08614C67.0382 5.89995 66.9567 5.72553 66.8372 5.57818C66.7178 5.43084 66.564 5.31509 66.3893 5.2411C64.5418 4.4559 62.5066 4.2217 60.529 4.56672C58.5514 4.91173 56.7158 5.82126 55.2432 7.18568C53.7708 8.55011 52.7242 10.3112 52.2298 12.2569C51.7353 14.2025 51.814 16.2496 52.4563 18.1514L50.5606 20.0496C50.4621 19.8759 50.3198 19.7311 50.1479 19.6294C49.9759 19.5279 49.7804 19.473 49.5808 19.4706H44.6914L44.2965 18.6727L46.0961 18.1897C46.243 18.1503 46.3807 18.0824 46.5015 17.9898C46.6221 17.8971 46.7233 17.7817 46.7993 17.65C46.8754 17.5182 46.9248 17.3728 46.9445 17.222C46.9644 17.0712 46.9543 16.918 46.9149 16.771L46.3672 14.7223L48.4123 14.1746C48.6472 14.1115 48.8563 13.9761 49.0099 13.7876C49.1634 13.5991 49.2539 13.367 49.2681 13.1242L49.5808 7.95914C49.5935 7.74424 49.5461 7.53005 49.4438 7.34062C49.3415 7.15118 49.1884 6.99402 49.0018 6.88675L42.9797 3.41248C42.848 3.33626 42.7024 3.28677 42.5516 3.26682C42.4007 3.24688 42.2474 3.25687 42.1003 3.29624C41.9533 3.33561 41.8154 3.40357 41.6947 3.49624C41.574 3.58892 41.4727 3.70449 41.3966 3.83634L32.4793 19.2806L28.162 14.954L28.9819 14.1353C29.0896 14.0277 29.175 13.9 29.2333 13.7594C29.2915 13.6187 29.3216 13.468 29.3216 13.3158C29.3216 13.1637 29.2915 13.0129 29.2333 12.8724C29.175 12.7318 29.0896 12.6041 28.9819 12.4965L27.8504 11.3662C28.2344 10.3259 28.862 9.39263 29.6809 8.64489C30.4998 7.89713 31.4861 7.35658 32.5569 7.06857C32.7837 7.00747 32.9865 6.87889 33.1385 6.69987C33.2904 6.52085 33.3844 6.29987 33.4078 6.06621C33.4314 5.83256 33.3833 5.5973 33.27 5.3916C33.1567 5.18592 32.9835 5.01954 32.7735 4.91453L31.3989 4.22778C29.8514 3.45419 28.1165 3.13458 26.3949 3.30592C24.6734 3.47725 23.0355 4.13253 21.6709 5.19594L20.7873 4.31232C20.5701 4.09521 20.2756 3.97325 19.9685 3.97325C19.6614 3.97325 19.3669 4.09521 19.1498 4.31232L16.2545 7.20059C16.0436 7.41901 15.9268 7.71154 15.9295 8.0152C15.9321 8.31884 16.0539 8.60931 16.2686 8.82403C16.4833 9.03874 16.7738 9.16054 17.0774 9.16317C17.3811 9.16581 17.6737 9.04909 17.8921 8.83813L19.9639 6.76863L26.514 13.3188L19.1439 20.69L12.6042 14.1433L14.6286 12.1179C14.8395 11.8995 14.9563 11.6069 14.9536 11.3032C14.951 10.9996 14.8292 10.7091 14.6144 10.4944C14.3997 10.2797 14.1093 10.1579 13.8056 10.1552C13.502 10.1526 13.2095 10.2694 12.991 10.4803L10.1479 13.32C10.0402 13.4275 9.9548 13.5552 9.89658 13.6958C9.83828 13.8364 9.8083 13.9871 9.8083 14.1393C9.8083 14.2915 9.83828 14.4422 9.89658 14.5828C9.9548 14.7233 10.0402 14.8511 10.1479 14.9586L10.9667 15.7762L9.32802 17.415L8.50922 16.5961C8.29205 16.379 7.99754 16.2571 7.69045 16.2571C7.38337 16.2571 7.08886 16.379 6.87168 16.5961L3.59661 19.8712C3.37951 20.0884 3.25754 20.383 3.25754 20.69C3.25754 20.9971 3.37951 21.2916 3.59661 21.5088L11.7854 29.6977C12.0026 29.9147 12.2972 30.0367 12.6042 30.0367C12.9113 30.0367 13.2059 29.9147 13.423 29.6977L16.698 26.4191C16.9152 26.2019 17.0372 25.9074 17.0372 25.6003C17.0372 25.2933 16.9152 24.9987 16.698 24.7815L15.8793 23.9616L17.5169 22.3241L18.3368 23.1429C18.5539 23.3599 18.8484 23.4819 19.1555 23.4819C19.4626 23.4819 19.7571 23.3599 19.9743 23.1429L21.6119 21.5041L26.1666 26.0589L20.8602 31.3665C20.7526 31.474 20.6671 31.6017 20.6089 31.7423C20.5506 31.8829 20.5206 32.0336 20.5206 32.1858C20.5206 32.338 20.5506 32.4887 20.6089 32.6293C20.6671 32.7698 20.7526 32.8976 20.8602 33.0051L24.1156 36.2594C23.6872 37.1248 23.3166 38.0178 23.0062 38.9322L9.62679 31.2066C9.36079 31.053 9.04469 31.0114 8.74802 31.0909C8.45135 31.1704 8.19841 31.3645 8.04483 31.6305L3.41247 39.6537C3.25891 39.9197 3.2173 40.2358 3.29678 40.5324C3.37627 40.8291 3.57035 41.082 3.83634 41.2356L15.3535 47.8854L9.38822 51.3295C8.99261 51.5575 8.64581 51.8611 8.36766 52.2232C8.08949 52.5853 7.88542 52.9986 7.76712 53.4396C7.64881 53.8806 7.61858 54.3405 7.67815 54.7932C7.73772 55.2458 7.88593 55.6824 8.11432 56.0777L12.7467 64.1021C12.9474 64.4424 13.2047 64.7459 13.5075 64.9996L7.3106 68.5735C7.17874 68.6495 7.06318 68.7508 6.9705 68.8716C6.87783 68.9923 6.80986 69.1301 6.7705 69.2772C6.73112 69.4242 6.72113 69.5776 6.74108 69.7284C6.76103 69.8794 6.81052 70.0248 6.88674 70.1566L8.04483 72.1624C8.12032 72.2952 8.22132 72.4117 8.34202 72.5053C8.46273 72.5988 8.60075 72.6676 8.74814 72.7076C8.89554 72.7477 9.04939 72.7581 9.20086 72.7384C9.35231 72.7188 9.4984 72.6693 9.63066 72.5929C9.76292 72.5166 9.87871 72.4148 9.97152 72.2935C10.0643 72.1722 10.1322 72.0337 10.1712 71.886C10.2103 71.7383 10.2197 71.5844 10.199 71.4331C10.1783 71.2818 10.1279 71.1361 10.0507 71.0043L9.47156 70.0014L18.3125 64.8965L22.4954 62.482L29.0502 69.0368C29.1578 69.1444 29.2855 69.2298 29.4261 69.2881C29.5667 69.3464 29.7174 69.3764 29.8696 69.3764C30.0217 69.3764 30.1725 69.3464 30.313 69.2881C30.4537 69.2298 30.5813 69.1444 30.6889 69.0368L33.9431 65.7813C34.8798 66.2473 35.8485 66.6459 36.8419 66.9741V71.5845C36.8419 71.8917 36.9638 72.1863 37.181 72.4034C37.3983 72.6206 37.6928 72.7426 37.9999 72.7426H49.5808C49.888 72.7426 50.1826 72.6206 50.3997 72.4034C50.6169 72.1863 50.7389 71.8917 50.7389 71.5845V66.9741C51.731 66.6454 52.6986 66.2463 53.6341 65.7802L56.8883 69.0356C56.9959 69.1432 57.1236 69.2286 57.2642 69.2869C57.4048 69.3452 57.5555 69.3752 57.7077 69.3752C57.8599 69.3752 58.0106 69.3452 58.1512 69.2869C58.2918 69.2286 58.4195 69.1432 58.5271 69.0356L66.7205 60.8468C66.8282 60.7392 66.9136 60.6115 66.9719 60.4709C67.0302 60.3302 67.0601 60.1796 67.0601 60.0274C67.0601 59.8751 67.0302 59.7245 66.9719 59.5839C66.9136 59.4433 66.8282 59.3156 66.7205 59.208L63.464 55.9503C63.9302 55.0148 64.3292 54.0473 64.658 53.0551H69.2684C69.5755 53.0551 69.87 52.9331 70.0872 52.7159C70.3044 52.4987 70.4264 52.2041 70.4264 51.897C70.4264 51.5899 70.3044 51.2953 70.0872 51.0781C69.87 50.861 69.5755 50.7389 69.2684 50.7389H63.8033C63.5521 50.7389 63.3076 50.8205 63.1069 50.9716C62.9062 51.1226 62.76 51.3348 62.6904 51.5762C62.2885 52.9783 61.7316 54.3312 61.0297 55.6098C60.9084 55.8296 60.8618 56.0829 60.8968 56.3314C60.9319 56.58 61.0468 56.8104 61.2242 56.9879L64.263 60.028L57.7118 66.5793L54.6764 63.5404C54.4988 63.363 54.2684 63.2482 54.0198 63.2131C53.7713 63.1779 53.518 63.2246 53.2983 63.3459C52.0197 64.0477 50.6668 64.6048 49.2647 65.0066C49.0233 65.0762 48.8111 65.2223 48.66 65.4231C48.509 65.6239 48.4273 65.8683 48.4274 66.1195V70.4265H39.1581V66.1195C39.1581 65.8683 39.0764 65.6239 38.9253 65.4231C38.7743 65.2223 38.5622 65.0762 38.3207 65.0066C36.9186 64.6048 35.5657 64.0477 34.2871 63.3459C34.0673 63.2246 33.8141 63.1779 33.5656 63.2131C33.317 63.2482 33.0866 63.363 32.909 63.5404L29.869 66.5793L23.3177 60.028L26.3565 56.9926C26.5339 56.815 26.6488 56.5846 26.6839 56.336C26.719 56.0875 26.6724 55.8343 26.5511 55.6145C25.8492 54.3359 25.2922 52.9829 24.8904 51.5809C24.8217 51.3386 24.6758 51.1254 24.4749 50.9735C24.2742 50.8215 24.0292 50.7392 23.7774 50.7389H19.4705V41.4742H23.7774C24.0287 41.4743 24.2731 41.3926 24.4739 41.2416C24.6746 41.0905 24.8208 40.8783 24.8904 40.6369C25.2922 39.2348 25.8492 37.8819 26.5511 36.6033C26.6724 36.3836 26.719 36.1303 26.6839 35.8818C26.6488 35.6332 26.5339 35.4027 26.3565 35.2252L23.3177 32.1852L29.869 25.6339L32.9043 28.6727C33.082 28.8501 33.3124 28.965 33.5609 29.0001C33.8095 29.0352 34.0627 28.9886 34.2824 28.8673C35.5611 28.1654 36.9139 27.6084 38.3161 27.2066C38.5584 27.1378 38.7716 26.992 38.9235 26.7912C39.0755 26.5903 39.1577 26.3455 39.1581 26.0936V21.7867H48.4228V26.0936C48.4227 26.3449 48.5044 26.5893 48.6554 26.79C48.8064 26.9908 49.0187 27.137 49.26 27.2066C50.6622 27.6084 52.0151 28.1654 53.2936 28.8673C53.5134 28.9886 53.7666 29.0352 54.0152 29.0001C54.2637 28.965 54.4942 28.8501 54.6718 28.6727L57.7118 25.6339L64.263 32.1852L61.2242 35.2206C61.0468 35.3981 60.9319 35.6285 60.8968 35.8771C60.8618 36.1257 60.9084 36.3789 61.0297 36.5987C61.7316 37.8773 62.2885 39.2302 62.6904 40.6323C62.76 40.8737 62.9062 41.0859 63.1069 41.2369C63.3076 41.388 63.5521 41.4696 63.8033 41.4696H68.1102V47.26C68.1102 47.5672 68.2323 47.8617 68.4494 48.0789C68.6666 48.2961 68.9612 48.4181 69.2684 48.4181C69.5755 48.4181 69.87 48.2961 70.0872 48.0789C70.3044 47.8617 70.4264 47.5672 70.4264 47.26V40.3162C70.4264 40.009 70.3044 39.7144 70.0872 39.4972C69.87 39.2801 69.5755 39.158 69.2684 39.158ZM12.6042 27.2413L6.05291 20.69L7.69045 19.0525L14.2418 25.6084L12.6042 27.2413ZM14.2418 22.3276L10.9655 19.0525L12.6042 17.4138L15.8804 20.69L14.2418 22.3276ZM9.47156 33.7927L11.4774 34.9507L9.74028 37.9618C9.66303 38.0935 9.61263 38.2392 9.59196 38.3906C9.5712 38.5419 9.58067 38.6958 9.61971 38.8434C9.65875 38.9911 9.7266 39.1295 9.81942 39.2509C9.91215 39.3722 10.028 39.474 10.1603 39.5504C10.2925 39.6267 10.4386 39.6762 10.5901 39.6959C10.7415 39.7156 10.8954 39.7051 11.0428 39.6651C11.1902 39.6251 11.3282 39.5563 11.4489 39.4627C11.5696 39.3691 11.6706 39.2526 11.7461 39.1198L13.4832 36.1088L15.489 37.2669L13.7519 40.2779C13.6747 40.4096 13.6242 40.5554 13.6035 40.7068C13.5829 40.858 13.5923 41.012 13.6314 41.1596C13.6704 41.3073 13.7383 41.4458 13.831 41.5671C13.9238 41.6884 14.0396 41.7902 14.1719 41.8665C14.3042 41.9429 14.4502 41.9924 14.6017 42.0121C14.7531 42.0317 14.907 42.0213 15.0543 41.9813C15.2018 41.9412 15.3398 41.8725 15.4605 41.7789C15.5812 41.6853 15.6822 41.5687 15.7577 41.436L17.4948 38.425L18.7687 39.1592H18.3125C18.0053 39.1592 17.7107 39.2812 17.4936 39.4984C17.2764 39.7156 17.1543 40.0101 17.1543 40.3173V46.2513L5.99733 39.8089L9.47156 33.7927ZM17.753 54.915C17.9747 54.9739 18.1739 55.0974 18.3252 55.2696C18.4767 55.4419 18.5735 55.6552 18.6036 55.8826C18.6336 56.11 18.5954 56.3411 18.4939 56.5468C18.3924 56.7524 18.2321 56.9233 18.0333 57.0378C17.7663 57.1897 17.4505 57.2313 17.1532 57.1535C16.8808 57.0818 16.6438 56.9132 16.4868 56.6794C16.3297 56.4455 16.2634 56.1624 16.2999 55.8831C16.3366 55.6037 16.4738 55.3474 16.6858 55.1619C16.8979 54.9765 17.1702 54.8747 17.452 54.8756C17.5535 54.8757 17.6547 54.8886 17.753 54.9138V54.915ZM22.9228 53.0551C23.2516 54.0473 23.6506 55.0148 24.1168 55.9503L20.8602 59.208C20.6552 59.4154 20.5365 59.6928 20.5281 59.9843C20.5198 60.2758 20.6223 60.5596 20.8151 60.7784L16.3356 63.3621C16.0698 63.5155 15.7542 63.5571 15.4577 63.4779C15.3108 63.4391 15.173 63.3714 15.0525 63.2788C14.932 63.1861 14.8312 63.0704 14.756 62.9383L10.1236 54.9126C9.9707 54.6471 9.92927 54.3316 10.0085 54.0355C10.0877 53.7394 10.2812 53.4868 10.5463 53.333L17.1543 49.5206V51.897C17.1597 52.1429 17.245 52.3804 17.3975 52.5733C16.5607 52.5858 15.7567 52.9005 15.1337 53.4594C14.5108 54.0182 14.1111 54.7835 14.0081 55.6141C13.9053 56.4447 14.1063 57.2843 14.5741 57.9783C15.0418 58.6723 15.7448 59.1736 16.5533 59.3898C16.8489 59.4676 17.1533 59.5065 17.4589 59.5056C18.2202 59.5079 18.9611 59.2589 19.5667 58.7975C20.1723 58.3361 20.6089 57.6879 20.8088 56.9532C21.0088 56.2186 20.9609 55.4386 20.6727 54.7338C20.3846 54.0291 19.872 53.4391 19.2146 53.0551H22.9228ZM29.4451 5.9209C28.0096 6.82187 26.8481 8.09869 26.0867 9.61293L23.3269 6.84737C24.2033 6.22523 25.2132 5.81732 26.2758 5.65641C27.3384 5.49551 28.4239 5.5861 29.4451 5.9209ZM33.9466 26.4329L30.6889 23.1765C30.5813 23.0687 30.4537 22.9833 30.313 22.925C30.1725 22.8668 30.0217 22.8367 29.8696 22.8367C29.7174 22.8367 29.5667 22.8668 29.4261 22.925C29.2855 22.9833 29.1578 23.0687 29.0502 23.1765L27.8088 24.4248L23.254 19.8701L26.5291 16.595L35.627 25.6918C35.0503 25.9188 34.4874 26.162 33.9466 26.4329ZM37.9999 19.4706C37.6928 19.4706 37.3983 19.5925 37.181 19.8097C36.9638 20.0269 36.8419 20.3214 36.8419 20.6286V23.6397L34.1783 20.9761L42.8292 5.99734L47.2299 8.53471L47.0121 12.1572L44.6543 12.7884C44.5074 12.8277 44.3697 12.8957 44.249 12.9882C44.1283 13.0809 44.0271 13.1963 43.9511 13.3281C43.875 13.4598 43.8257 13.6052 43.8059 13.7561C43.786 13.9069 43.7961 14.0601 43.8355 14.2071L44.3845 16.2522L42.3381 16.7999C42.1723 16.8433 42.0181 16.9229 41.8867 17.0331C41.7554 17.1433 41.6501 17.2812 41.5785 17.4369C41.5069 17.5928 41.4709 17.7625 41.4728 17.9339C41.4748 18.1053 41.5148 18.2741 41.59 18.4282L42.103 19.4706H37.9999ZM53.6341 26.4329C52.6986 25.9668 51.731 25.5678 50.7389 25.239V23.144L53.5056 20.3761C54.2853 21.6292 55.3257 22.6995 56.5559 23.5146L53.6341 26.4329Z" fill="black"/>
<path d="M43.7905 36.8422C45.5335 36.8441 47.2406 37.3387 48.7146 38.2689C48.8432 38.3559 48.9879 38.4162 49.1403 38.4461C49.2925 38.4761 49.4493 38.475 49.6013 38.4431C49.7532 38.4112 49.8972 38.3492 50.0246 38.2605C50.1521 38.1719 50.2604 38.0586 50.3431 37.9273C50.426 37.796 50.4815 37.6494 50.5064 37.4962C50.5315 37.343 50.5254 37.1863 50.4886 37.0355C50.4519 36.8847 50.3852 36.7428 50.2925 36.6183C50.1998 36.4937 50.083 36.3891 49.9491 36.3107C47.5339 34.7899 44.643 34.2124 41.8289 34.6886C39.0147 35.1646 36.4747 36.661 34.6942 38.8916C32.9136 41.1222 32.0175 43.9307 32.1768 46.7804C32.3362 49.63 33.54 52.3211 35.5581 54.3392C37.5763 56.3574 40.2673 57.5612 43.117 57.7205C45.9666 57.8799 48.7751 56.9837 51.0057 55.2032C53.2363 53.4226 54.7327 50.8826 55.2088 48.0684C55.6849 45.2544 55.1074 42.3634 53.5867 39.9482C53.5082 39.8143 53.4036 39.6975 53.2791 39.6049C53.1546 39.5121 53.0127 39.4454 52.8618 39.4087C52.711 39.372 52.5544 39.3659 52.4011 39.3908C52.2479 39.4159 52.1014 39.4714 51.97 39.5542C51.8387 39.637 51.7254 39.7453 51.6368 39.8728C51.5482 40.0002 51.4861 40.1441 51.4542 40.2961C51.4224 40.448 51.4213 40.6048 51.4513 40.7571C51.4812 40.9094 51.5414 41.0541 51.6284 41.1827C52.7189 42.922 53.2004 44.9744 52.9973 47.0173C52.7942 49.0602 51.9179 50.9776 50.5061 52.4681C49.0944 53.9586 47.2274 54.9377 45.1985 55.2513C43.1698 55.565 41.0942 55.1955 39.2983 54.2009C37.5023 53.2064 36.0879 51.6432 35.2773 49.7571C34.4666 47.871 34.3059 45.7689 34.8202 43.7815C35.3345 41.7941 36.4947 40.0338 38.1186 38.7777C39.7423 37.5216 41.7375 36.8408 43.7905 36.8422Z" fill="#FFC32D"/>
</svg>
