<svg width="67" height="66" viewBox="0 0 67 66" fill="none" xmlns="http://www.w3.org/2000/svg">
<g clip-path="url(#clip0)">
<path d="M27.2073 9.32324H27.196C26.6278 9.32324 26.1727 9.78339 26.1727 10.3527C26.1727 10.922 26.638 11.3821 27.2073 11.3821C27.7755 11.3821 28.2367 10.922 28.2367 10.3527C28.2367 9.78339 27.7755 9.32324 27.2073 9.32324Z" fill="#FFC32D"/>
<path d="M6.61915 57.7056H6.60783C6.03959 57.7056 5.58459 58.1657 5.58459 58.7349C5.58459 59.3042 6.04988 59.7644 6.61915 59.7644C7.18739 59.7644 7.64856 59.3042 7.64856 58.7349C7.64856 58.1657 7.18739 57.7056 6.61915 57.7056Z" fill="black"/>
<path d="M61.1471 39.1763C60.5778 39.1763 60.1177 39.6364 60.1177 40.2057C60.1177 40.7749 60.5778 41.2351 61.1471 41.2351C62.8497 41.2351 64.2353 42.6207 64.2353 44.3234C64.2353 45.4237 63.6444 46.4491 62.6912 46.9998C62.2001 47.2839 62.0313 47.9129 62.3165 48.4059C62.5059 48.7354 62.8518 48.9197 63.208 48.9197C63.383 48.9197 63.56 48.8754 63.7227 48.7807C65.309 47.8634 66.2941 46.1547 66.2941 44.3234C66.2941 41.4852 63.9852 39.1763 61.1471 39.1763Z" fill="black"/>
<path d="M64.1117 47.4024C63.8431 46.9022 63.2172 46.7148 62.718 46.9835L34.9238 61.947C34.4235 62.2157 34.2351 62.8406 34.5049 63.3408C34.6912 63.6867 35.0463 63.8823 35.4128 63.8823C35.5775 63.8823 35.7442 63.8431 35.8986 63.7598L63.6928 48.7963C64.1931 48.5276 64.3805 47.9028 64.1117 47.4024Z" fill="black"/>
<path d="M35.6019 61.6801L25.0419 61.9576C24.7852 61.9599 24.7072 62.4105 24.8571 62.9552C25.0053 63.4993 25.3305 63.9354 25.582 63.9284L36.1419 63.6509C36.1622 63.6507 36.1811 63.6476 36.199 63.6416C36.4052 63.5726 36.4644 63.1544 36.3268 62.6533C36.1785 62.1092 35.8533 61.6731 35.6019 61.6801Z" fill="black"/>
<path d="M21.304 61.8325L11.2018 58.7443C10.9577 58.6651 10.7407 59.0676 10.7099 59.6317C10.6779 60.1948 10.8478 60.7115 11.0885 60.7846L21.1906 63.8728C21.2099 63.8791 21.2288 63.8821 21.2477 63.8821C21.4651 63.8821 21.654 63.5043 21.6826 62.9855C21.7146 62.4224 21.5446 61.9057 21.304 61.8325Z" fill="black"/>
<path d="M11.7353 33H1.44115C0.87189 33 0.411743 33.4602 0.411743 34.0294V61.8235C0.411743 62.3928 0.87189 62.8529 1.44115 62.8529H11.7353C12.3045 62.8529 12.7647 62.3928 12.7647 61.8235V34.0294C12.7647 33.4602 12.3045 33 11.7353 33ZM10.7059 60.7942H2.47057V35.0588H10.7059V60.7942Z" fill="black"/>
<path d="M61.4621 40.1121C61.3766 39.55 60.8485 39.165 60.2895 39.2494L40.4044 42.2759C39.8423 42.3613 39.4563 42.8863 39.5417 43.4484C39.6189 43.959 40.0575 44.3234 40.5577 44.3234C40.6093 44.3234 40.6617 44.3193 40.7142 44.3111L60.5994 41.2846C61.1614 41.1991 61.5475 40.6741 61.4621 40.1121Z" fill="black"/>
<path d="M37.3234 38.2239C36.7634 38.1282 36.2312 38.5029 36.1344 39.0629C36.0376 39.6229 36.4134 40.1551 36.9734 40.2518C38.4547 40.5072 39.5294 41.7868 39.5294 43.2938C39.5294 44.9964 38.1438 46.382 36.4412 46.382C35.8719 46.382 35.4117 46.8421 35.4117 47.4114C35.4117 47.9807 35.8719 48.4408 36.4412 48.4408C39.2793 48.4408 41.5882 46.1318 41.5882 43.2938C41.5882 40.7821 39.795 38.6481 37.3234 38.2239Z" fill="black"/>
<path d="M37.346 38.2273L21.1966 35.0773C20.6387 34.9651 20.0972 35.3316 19.9892 35.8906C19.88 36.4485 20.2444 36.99 20.8024 37.098L36.9518 40.248C37.0176 40.2614 37.0845 40.2676 37.1494 40.2676C37.6322 40.2676 38.0636 39.9269 38.1593 39.4348C38.2684 38.8769 37.904 38.3354 37.346 38.2273Z" fill="black"/>
<path d="M20.9999 35.0586H11.7353C11.166 35.0586 10.7058 35.5187 10.7058 36.088C10.7058 36.6573 11.166 37.1174 11.7353 37.1174H20.9999C21.5692 37.1174 22.0293 36.6573 22.0293 36.088C22.0293 35.5187 21.5692 35.0586 20.9999 35.0586Z" fill="black"/>
<path d="M36.087 46.3628L23.1381 45.356C22.5688 45.2994 22.0767 45.7359 22.0325 46.303C21.9882 46.8703 22.4123 47.3644 22.9795 47.4087L35.9284 48.4154C35.9552 48.4175 35.982 48.4185 36.0088 48.4185C36.542 48.4185 36.9919 48.0078 37.034 47.4684C37.0783 46.9012 36.6542 46.4071 36.087 46.3628Z" fill="black"/>
<path d="M61.147 39.1763C60.8505 39.1763 60.5561 39.201 60.2689 39.2514C59.7079 39.3471 59.3321 39.8794 59.4289 40.4394C59.5143 40.9407 59.9488 41.2948 60.4418 41.2948C60.4995 41.2948 60.5592 41.2896 60.6168 41.2794C60.7888 41.2505 60.9658 41.2351 61.147 41.2351C61.7162 41.2351 62.1764 40.7749 62.1764 40.2057C62.1764 39.6364 61.7162 39.1763 61.147 39.1763Z" fill="black"/>
<path d="M36.4412 46.382C36.3331 46.382 36.225 46.3758 36.119 46.3645C35.5446 46.2976 35.0474 46.7135 34.9866 47.2797C34.927 47.8448 35.3356 48.3513 35.9018 48.412C36.0778 48.4305 36.2579 48.4408 36.4412 48.4408C37.0104 48.4408 37.4706 47.9806 37.4706 47.4114C37.4706 46.8421 37.0104 46.382 36.4412 46.382Z" fill="black"/>
<path d="M38.2725 5.43395C36.1344 3.29483 33.2901 2.11719 30.2657 2.11719C27.2413 2.11719 24.3981 3.29483 22.26 5.43395C20.1209 7.57203 18.9432 10.4153 18.9432 13.4397C18.9432 16.4651 20.1209 19.3084 22.26 21.4465C24.3981 23.5855 27.2413 24.7632 30.2657 24.7632C33.2901 24.7632 36.1344 23.5855 38.2725 21.4465C40.4116 19.3084 41.5893 16.4641 41.5893 13.4397C41.5893 10.4153 40.4116 7.57203 38.2725 5.43395ZM36.8169 19.9909C35.0669 21.7408 32.7405 22.7044 30.2657 22.7044C27.791 22.7044 25.4646 21.7408 23.7156 19.9909C21.9656 18.2419 21.0021 15.9144 21.0021 13.4397C21.0021 10.966 21.9656 8.63852 23.7156 6.88954C25.4646 5.13954 27.791 4.17601 30.2657 4.17601C32.7405 4.17601 35.0669 5.13954 36.8169 6.88954C38.567 8.63852 39.5304 10.965 39.5304 13.4397C39.5304 15.9144 38.567 18.2409 36.8169 19.9909Z" fill="#FFC32D"/>
<path d="M44.3748 33.3013L42.6176 31.5441V29.9114C42.6176 29.3422 42.1575 28.882 41.5882 28.882H40.5588V27.8526C40.5588 27.2834 40.0987 26.8232 39.5294 26.8232H37.8968L33.7143 22.6407C33.3118 22.2383 32.6612 22.2383 32.2587 22.6407C31.8562 23.0432 31.8562 23.6938 32.2587 24.0963L36.7428 28.5805C36.9352 28.7739 37.1967 28.882 37.4706 28.882H38.4999V29.9114C38.4999 30.4807 38.9601 30.9409 39.5294 30.9409H40.5588V31.9702C40.5588 32.2441 40.6669 32.5056 40.8604 32.6981L42.9193 34.7569C43.12 34.9576 43.3835 35.0585 43.647 35.0585C43.9106 35.0585 44.1741 34.9576 44.3748 34.7569C44.7774 34.3544 44.7774 33.7038 44.3748 33.3013Z" fill="#FFC32D"/>
<path d="M51.5838 26.0974L40.9397 15.3812C40.5361 14.9777 39.8866 14.9756 39.483 15.3761C39.0795 15.7775 39.0774 16.4281 39.4779 16.8327L50.122 27.5489C50.3237 27.7506 50.5883 27.8526 50.8528 27.8526C51.1153 27.8526 51.3779 27.7527 51.5786 27.554C51.9821 27.1525 51.9842 26.502 51.5838 26.0974Z" fill="#FFC32D"/>
<path d="M50.8529 33H43.647C43.0777 33 42.6176 33.4602 42.6176 34.0294C42.6176 34.5987 43.0777 35.0588 43.647 35.0588H50.8529C51.4222 35.0588 51.8823 34.5987 51.8823 34.0294C51.8823 33.4602 51.4222 33 50.8529 33Z" fill="#FFC32D"/>
<path d="M50.8529 25.7939C50.2836 25.7939 49.8235 26.2541 49.8235 26.8234V34.0292C49.8235 34.5985 50.2836 35.0587 50.8529 35.0587C51.4222 35.0587 51.8823 34.5985 51.8823 34.0292V26.8234C51.8823 26.2541 51.4222 25.7939 50.8529 25.7939Z" fill="#FFC32D"/>
</g>
<defs>
<clipPath id="clip0">
<rect width="65.8824" height="65.8824" fill="white" transform="translate(0.411743 0.0585938)"/>
</clipPath>
</defs>
</svg>
