<svg width="76" height="76" viewBox="0 0 76 76" fill="none" xmlns="http://www.w3.org/2000/svg">
<g clip-path="url(#clip0)">
<path d="M32.2093 29.894H4.41539C2.49993 29.894 0.941162 31.4528 0.941162 33.3683V71.5848C0.941162 73.5003 2.49993 75.059 4.41539 75.059H32.2093C34.1247 75.059 35.6835 73.5003 35.6835 71.5848V33.3683C35.6835 31.4528 34.1247 29.894 32.2093 29.894ZM33.3673 71.5848C33.3673 72.224 32.8485 72.7429 32.2093 72.7429H4.41539C3.77614 72.7429 3.25731 72.224 3.25731 71.5848V33.3683C3.25731 32.729 3.77614 32.2102 4.41539 32.2102H32.2093C32.8485 32.2102 33.3673 32.729 33.3673 33.3683V71.5848Z" fill="#FFC32D"/>
<path d="M29.8931 34.5264H6.73156C6.09114 34.5264 5.57349 35.044 5.57349 35.6845V41.4749C5.57349 42.1153 6.09114 42.6329 6.73156 42.6329H29.8931C30.5336 42.6329 31.0511 42.1153 31.0511 41.4749V35.6845C31.0511 35.044 30.5336 34.5264 29.8931 34.5264ZM28.735 40.3168H7.88964V36.8425H28.735V40.3168Z" fill="#FFC32D"/>
<path d="M9.04772 44.9492C7.13225 44.9492 5.57349 46.508 5.57349 48.4234C5.57349 50.3389 7.13225 51.8977 9.04772 51.8977C10.9632 51.8977 12.522 50.3389 12.522 48.4234C12.522 46.508 10.9632 44.9492 9.04772 44.9492ZM9.04772 49.5815C8.40845 49.5815 7.88964 49.0627 7.88964 48.4234C7.88964 47.7841 8.40845 47.2653 9.04772 47.2653C9.68697 47.2653 10.2058 47.7841 10.2058 48.4234C10.2058 49.0627 9.68697 49.5815 9.04772 49.5815Z" fill="#FFC32D"/>
<path d="M18.3738 44.9492C16.4582 44.9492 14.8995 46.508 14.8995 48.4234C14.8995 50.3389 16.4582 51.8977 18.3738 51.8977C20.2892 51.8977 21.848 50.3389 21.848 48.4234C21.848 46.508 20.2892 44.9492 18.3738 44.9492ZM18.3738 49.5815C17.7345 49.5815 17.2156 49.0627 17.2156 48.4234C17.2156 47.7841 17.7345 47.2653 18.3738 47.2653C19.0118 47.2653 19.5318 47.7841 19.5318 48.4234C19.5318 49.0627 19.013 49.5815 18.3738 49.5815Z" fill="#FFC32D"/>
<path d="M27.6384 44.9492C25.7228 44.9492 24.1641 46.508 24.1641 48.4234C24.1641 50.3389 25.7228 51.8977 27.6384 51.8977C29.5538 51.8977 31.1126 50.3389 31.1126 48.4234C31.1126 46.508 29.5538 44.9492 27.6384 44.9492ZM27.6384 49.5815C26.9991 49.5815 26.4802 49.0627 26.4802 48.4234C26.4802 47.7841 26.9991 47.2653 27.6384 47.2653C28.2764 47.2653 28.7964 47.7841 28.7964 48.4234C28.7964 49.0627 28.2776 49.5815 27.6384 49.5815Z" fill="#FFC32D"/>
<path d="M9.04772 54.2139C7.13225 54.2139 5.57349 55.7726 5.57349 57.6882C5.57349 59.6036 7.13225 61.1624 9.04772 61.1624C10.9632 61.1624 12.522 59.6036 12.522 57.6882C12.522 55.7726 10.9632 54.2139 9.04772 54.2139ZM9.04772 58.8462C8.40845 58.8462 7.88964 58.3274 7.88964 57.6882C7.88964 57.0489 8.40845 56.53 9.04772 56.53C9.68697 56.53 10.2058 57.0489 10.2058 57.6882C10.2058 58.3274 9.68697 58.8462 9.04772 58.8462Z" fill="#FFC32D"/>
<path d="M18.3738 54.2139C16.4582 54.2139 14.8995 55.7726 14.8995 57.6882C14.8995 59.6036 16.4582 61.1624 18.3738 61.1624C20.2892 61.1624 21.848 59.6036 21.848 57.6882C21.848 55.7726 20.2892 54.2139 18.3738 54.2139ZM18.3738 58.8462C17.7345 58.8462 17.2156 58.3274 17.2156 57.6882C17.2156 57.0489 17.7345 56.53 18.3738 56.53C19.0118 56.53 19.5318 57.0489 19.5318 57.6882C19.5318 58.3274 19.013 58.8462 18.3738 58.8462Z" fill="#FFC32D"/>
<path d="M27.6384 54.2139C25.7228 54.2139 24.1641 55.7726 24.1641 57.6882C24.1641 59.6036 25.7228 61.1624 27.6384 61.1624C29.5538 61.1624 31.1126 59.6036 31.1126 57.6882C31.1126 55.7726 29.5538 54.2139 27.6384 54.2139ZM27.6384 58.8462C26.9991 58.8462 26.4802 58.3274 26.4802 57.6882C26.4802 57.0489 26.9991 56.53 27.6384 56.53C28.2764 56.53 28.7964 57.0489 28.7964 57.6882C28.7964 58.3274 28.2776 58.8462 27.6384 58.8462Z" fill="#FFC32D"/>
<path d="M9.04772 63.4785C7.13225 63.4785 5.57349 65.0373 5.57349 66.9527C5.57349 68.8682 7.13225 70.427 9.04772 70.427C10.9632 70.427 12.522 68.8682 12.522 66.9527C12.522 65.0373 10.9632 63.4785 9.04772 63.4785ZM9.04772 68.1108C8.40845 68.1108 7.88964 67.592 7.88964 66.9527C7.88964 66.3134 8.40845 65.7947 9.04772 65.7947C9.68697 65.7947 10.2058 66.3134 10.2058 66.9527C10.2058 67.592 9.68697 68.1108 9.04772 68.1108Z" fill="#FFC32D"/>
<path d="M18.3738 63.4785C16.4582 63.4785 14.8995 65.0373 14.8995 66.9527C14.8995 68.8682 16.4582 70.427 18.3738 70.427C20.2892 70.427 21.848 68.8682 21.848 66.9527C21.848 65.0373 20.2892 63.4785 18.3738 63.4785ZM18.3738 68.1108C17.7345 68.1108 17.2156 67.592 17.2156 66.9527C17.2156 66.3134 17.7345 65.7947 18.3738 65.7947C19.0118 65.7947 19.5318 66.3134 19.5318 66.9527C19.5318 67.592 19.013 68.1108 18.3738 68.1108Z" fill="#FFC32D"/>
<path d="M27.6384 63.4785C25.7228 63.4785 24.1641 65.0373 24.1641 66.9527C24.1641 68.8682 25.7228 70.427 27.6384 70.427C29.5538 70.427 31.1126 68.8682 31.1126 66.9527C31.1126 65.0373 29.5538 63.4785 27.6384 63.4785ZM27.6384 68.1108C26.9991 68.1108 26.4802 67.592 26.4802 66.9527C26.4802 66.3134 26.9991 65.7947 27.6384 65.7947C28.2764 65.7947 28.7964 66.3134 28.7964 66.9527C28.7964 67.592 28.2776 68.1108 27.6384 68.1108Z" fill="#FFC32D"/>
<path d="M44.793 1.52145C44.4722 0.967885 43.7623 0.77796 43.211 1.09759L13.101 18.4688C12.5475 18.7884 12.3576 19.496 12.6772 20.0507C12.8915 20.4213 13.2806 20.6297 13.6812 20.6297C13.8781 20.6297 14.0773 20.5799 14.2591 20.4746L44.3691 3.10338C44.9227 2.78375 45.1126 2.07617 44.793 1.52145Z" fill="black"/>
<path d="M74.479 18.4685L44.3691 1.09738C43.812 0.776593 43.1079 0.966518 42.7871 1.52124C42.4663 2.07595 42.6562 2.78354 43.2109 3.10317L73.321 20.4743C73.5039 20.5797 73.7019 20.6295 73.8988 20.6295C74.2995 20.6295 74.6886 20.421 74.9029 20.0504C75.2237 19.4969 75.0337 18.7881 74.479 18.4685Z" fill="black"/>
<path d="M44.793 6.15375C44.4722 5.60019 43.7623 5.41142 43.211 5.72988L13.101 23.101C12.5475 23.4207 12.3576 24.1283 12.6772 24.683C12.8915 25.0536 13.2806 25.262 13.6812 25.262C13.8781 25.262 14.0773 25.2122 14.2591 25.1068L44.3691 7.73568C44.9227 7.41604 45.1126 6.70846 44.793 6.15375Z" fill="black"/>
<path d="M74.479 23.1008L44.3691 5.72968C43.812 5.41005 43.1079 5.59882 42.7871 6.15353C42.4663 6.70825 42.6562 7.41584 43.2109 7.73546L73.321 25.1066C73.5039 25.212 73.7019 25.2618 73.8988 25.2618C74.2995 25.2618 74.6886 25.0533 74.9029 24.6827C75.2237 24.1292 75.0337 23.4204 74.479 23.1008Z" fill="black"/>
<path d="M13.68 18.3135C13.0396 18.3135 12.522 18.8311 12.522 19.4716V24.1039C12.522 24.7443 13.0396 25.2619 13.68 25.2619C14.3205 25.2619 14.8381 24.7443 14.8381 24.1039V19.4716C14.8381 18.8311 14.3205 18.3135 13.68 18.3135Z" fill="black"/>
<path d="M73.9001 18.3135C73.2596 18.3135 72.7419 18.8311 72.7419 19.4716V24.1039C72.7419 24.7443 73.2596 25.2619 73.9001 25.2619C74.5405 25.2619 75.0581 24.7443 75.0581 24.1039V19.4716C75.0581 18.8311 74.5405 18.3135 73.9001 18.3135Z" fill="black"/>
<path d="M17.1543 20.9424C16.5139 20.9424 15.9962 21.46 15.9962 22.1004V31.0524C15.9962 31.6928 16.5139 32.2104 17.1543 32.2104C17.7947 32.2104 18.3123 31.6928 18.3123 31.0524V22.1004C18.3123 21.46 17.7947 20.9424 17.1543 20.9424Z" fill="black"/>
<path d="M70.4258 20.9424C69.7854 20.9424 69.2677 21.46 69.2677 22.1004V56.5301C69.2677 57.1704 69.7854 57.6881 70.4258 57.6881C71.0662 57.6881 71.5839 57.1704 71.5839 56.5301V22.1004C71.5839 21.46 71.0662 20.9424 70.4258 20.9424Z" fill="black"/>
<path d="M70.4258 55.3721H34.5254C33.885 55.3721 33.3673 55.8897 33.3673 56.5301C33.3673 57.1706 33.885 57.6882 34.5254 57.6882H70.4258C71.0662 57.6882 71.5839 57.1706 71.5839 56.5301C71.5839 55.8897 71.0662 55.3721 70.4258 55.3721Z" fill="black"/>
<path d="M48.4223 38.0005H39.1577C38.5172 38.0005 37.9996 38.5182 37.9996 39.1586V56.5297C37.9996 57.1702 38.5172 57.6878 39.1577 57.6878H48.4223C49.0627 57.6878 49.5804 57.1702 49.5804 56.5297V39.1586C49.5804 38.5182 49.0627 38.0005 48.4223 38.0005ZM47.2642 55.3717H40.3157V40.3167H47.2642V55.3717Z" fill="black"/>
<path d="M65.7934 31.0522H53.0545C52.4142 31.0522 51.8965 31.5699 51.8965 32.2104V44.9492C51.8965 45.5896 52.4142 46.1073 53.0545 46.1073H65.7934C66.4338 46.1073 66.9515 45.5896 66.9515 44.9492V32.2104C66.9515 31.5699 66.4338 31.0522 65.7934 31.0522ZM64.6353 43.7912H54.2127V33.3684H64.6353V43.7912Z" fill="black"/>
<path d="M65.7934 36.8428H53.0545C52.4142 36.8428 51.8965 37.3604 51.8965 38.0008C51.8965 38.6413 52.4142 39.1589 53.0545 39.1589H65.7934C66.4338 39.1589 66.9515 38.6413 66.9515 38.0008C66.9515 37.3604 66.4338 36.8428 65.7934 36.8428Z" fill="black"/>
<path d="M43.79 15.9971C40.5971 15.9971 37.9996 18.5946 37.9996 21.7875C37.9996 24.9803 40.5971 27.5778 43.79 27.5778C46.9828 27.5778 49.5804 24.9803 49.5804 21.7875C49.5804 18.5946 46.9828 15.9971 43.79 15.9971ZM43.79 25.2617C41.8745 25.2617 40.3157 23.7029 40.3157 21.7875C40.3157 19.8719 41.8745 18.3132 43.79 18.3132C45.7054 18.3132 47.2642 19.8719 47.2642 21.7875C47.2642 23.7029 45.7054 25.2617 43.79 25.2617Z" fill="black"/>
<path d="M43.79 15.9971C43.1496 15.9971 42.632 16.5147 42.632 17.1551V26.4197C42.632 27.0602 43.1496 27.5778 43.79 27.5778C44.4305 27.5778 44.9481 27.0602 44.9481 26.4197V17.1551C44.9481 16.5147 44.4305 15.9971 43.79 15.9971Z" fill="black"/>
<path d="M48.4223 20.6294H39.1577C38.5172 20.6294 37.9996 21.1471 37.9996 21.7875C37.9996 22.4279 38.5172 22.9456 39.1577 22.9456H48.4223C49.0627 22.9456 49.5804 22.4279 49.5804 21.7875C49.5804 21.1471 49.0627 20.6294 48.4223 20.6294Z" fill="black"/>
</g>
<defs>
<clipPath id="clip0">
<rect width="74.1176" height="74.1176" fill="white" transform="translate(0.941162 0.941406)"/>
</clipPath>
</defs>
</svg>
