<svg width="74" height="75" viewBox="0 0 74 75" fill="none" xmlns="http://www.w3.org/2000/svg">
<g clip-path="url(#clip0)">
<path d="M34.1462 50.2892C34.7113 49.723 34.7113 48.8066 34.1462 48.2403C33.5805 47.6758 32.6641 47.6758 32.0979 48.2403C31.5333 48.8066 31.5333 49.723 32.0979 50.2892C32.6641 50.8537 33.5805 50.8537 34.1462 50.2892Z" fill="black"/>
<path d="M27 15.925C27 24.7061 34.144 31.8506 42.925 31.8506C51.7061 31.8506 58.85 24.7061 58.85 15.925C58.85 7.14397 51.7061 0 42.925 0C34.144 0 27 7.14397 27 15.925V15.925ZM55.9549 15.925C55.9549 23.1097 50.1097 28.9549 42.925 28.9549C35.7403 28.9549 29.8952 23.1097 29.8952 15.925C29.8952 8.74089 35.7403 2.89572 42.925 2.89572C50.1097 2.89572 55.9549 8.74089 55.9549 15.925Z" fill="#FFC32D"/>
<path d="M16.7481 73.7163C17.3092 74.282 18.2228 74.2883 18.7913 73.7282L25.8102 66.8134C27.0027 65.6209 27.3653 63.8554 26.8409 62.3207L28.3507 60.8647C29.1636 60.0795 30.2339 59.6468 31.3652 59.6468H50.6114C54.0258 59.6468 57.253 58.3355 59.6996 55.9546C59.8003 55.8567 58.9353 56.8755 72.8296 40.2694C74.8903 37.8313 74.582 34.1702 72.1417 32.1072C69.7166 30.0634 66.0838 30.357 64.0174 32.7532L55.4745 41.5337C54.3958 40.206 52.7508 39.3784 50.9734 39.3784H34.8294C32.5322 38.4174 30.0947 37.9309 27.5797 37.9309C20.6083 37.9309 14.521 41.1507 11.2542 47.1877C9.87787 46.9269 8.42633 47.3432 7.38209 48.3875L0.494932 55.295C-0.0673537 55.859 -0.068485 56.7714 0.49267 57.3371L16.7481 73.7163ZM27.5791 40.826C29.7966 40.826 31.9405 41.2723 33.9526 42.1525C34.1359 42.2329 34.3333 42.2742 34.533 42.2742H50.9734C52.5432 42.2742 53.8691 43.5543 53.8691 45.1693C53.8691 46.7662 52.5703 48.065 50.9734 48.065H39.1614C38.3621 48.065 37.7138 48.7133 37.7138 49.5126C37.7138 50.3125 38.3621 50.9602 39.1614 50.9602H50.9734C54.1667 50.9602 56.7643 48.3626 56.7643 45.1693C56.7643 44.9148 56.7462 44.6625 56.7133 44.4124C64.9774 35.9176 66.1427 34.724 66.1924 34.6646C67.2242 33.4467 69.0559 33.2923 70.2744 34.3196C71.494 35.3508 71.6484 37.1813 70.6138 38.406L57.6286 53.9294C55.7325 55.7498 53.2429 56.7516 50.6114 56.7516H31.3652C29.4792 56.7516 27.694 57.4728 26.3397 58.7813L25.1094 59.9686L13.7675 48.6273C16.4183 43.6544 21.3923 40.826 27.5791 40.826V40.826ZM9.43098 50.4335C9.90841 49.9561 10.6415 49.8701 11.2236 50.2299C11.4742 50.3826 10.7547 49.7276 23.763 62.7178C24.3417 63.2965 24.3106 64.2186 23.771 64.7582L17.7872 70.6532L3.56205 56.3194L9.43098 50.4335Z" fill="black"/>
<mask id="path-4-inside-1" fill="white">
<path d="M40.0329 8V18.5H39V20H40.0329V23H41.0659V20H44.1647V18.5H41.0659V16.25H44.9394C46.5023 16.25 47.78 14.3945 47.78 12.125C47.78 9.8555 46.5023 8 44.9394 8H40.0329ZM41.0659 9.5H44.9394C45.9434 9.5 46.7471 10.667 46.7471 12.125C46.7471 13.583 45.9434 14.75 44.9394 14.75H41.0659V9.5Z"/>
</mask>
<path d="M40.0329 8V18.5H39V20H40.0329V23H41.0659V20H44.1647V18.5H41.0659V16.25H44.9394C46.5023 16.25 47.78 14.3945 47.78 12.125C47.78 9.8555 46.5023 8 44.9394 8H40.0329ZM41.0659 9.5H44.9394C45.9434 9.5 46.7471 10.667 46.7471 12.125C46.7471 13.583 45.9434 14.75 44.9394 14.75H41.0659V9.5Z" fill="#FFC32D"/>
<path d="M40.0329 8V-49H-16.9671V8H40.0329ZM40.0329 18.5V75.5H97.0329V18.5H40.0329ZM39 18.5V-38.5H-18V18.5H39ZM39 20H-18V77H39V20ZM40.0329 20H97.0329V-37H40.0329V20ZM40.0329 23H-16.9671V80H40.0329V23ZM41.0659 23V80H98.0659V23H41.0659ZM41.0659 20V-37H-15.9341V20H41.0659ZM44.1647 20V77H101.165V20H44.1647ZM44.1647 18.5H101.165V-38.5H44.1647V18.5ZM41.0659 18.5H-15.9341V75.5H41.0659V18.5ZM41.0659 16.25V-40.75H-15.9341V16.25H41.0659ZM41.0659 9.5V-47.5H-15.9341V9.5H41.0659ZM41.0659 14.75H-15.9341V71.75H41.0659V14.75ZM-16.9671 8V18.5H97.0329V8H-16.9671ZM40.0329 -38.5H39V75.5H40.0329V-38.5ZM-18 18.5V20H96V18.5H-18ZM39 77H40.0329V-37H39V77ZM-16.9671 20V23H97.0329V20H-16.9671ZM40.0329 80H41.0659V-34H40.0329V80ZM98.0659 23V20H-15.9341V23H98.0659ZM41.0659 77H44.1647V-37H41.0659V77ZM101.165 20V18.5H-12.8353V20H101.165ZM44.1647 -38.5H41.0659V75.5H44.1647V-38.5ZM98.0659 18.5V16.25H-15.9341V18.5H98.0659ZM41.0659 73.25H44.9394V-40.75H41.0659V73.25ZM44.9394 73.25C69.9872 73.25 86.3037 58.3852 93.8914 47.3666C101.701 36.0256 104.78 23.4146 104.78 12.125H-9.22C-9.22 3.10486 -6.78007 -7.44359 0.000102849 -17.2895C6.55822 -26.813 21.4544 -40.75 44.9394 -40.75V73.25ZM104.78 12.125C104.78 0.83536 101.701 -11.7756 93.8914 -23.1166C86.3037 -34.1352 69.9872 -49 44.9394 -49V65C21.4544 65 6.55822 51.063 0.000102849 41.5395C-6.78007 31.6936 -9.22 21.1451 -9.22 12.125H104.78ZM44.9394 -49H40.0329V65H44.9394V-49ZM41.0659 66.5H44.9394V-47.5H41.0659V66.5ZM44.9394 66.5C21.5139 66.5 6.26855 52.751 -0.725926 42.5938C-7.81025 32.3062 -10.2529 21.3211 -10.2529 12.125H103.747C103.747 1.47086 100.903 -10.8267 93.1654 -22.0623C85.5181 -33.1675 69.3689 -47.5 44.9394 -47.5V66.5ZM-10.2529 12.125C-10.2529 2.92886 -7.81025 -8.05622 -0.725926 -18.3438C6.26855 -28.501 21.5139 -42.25 44.9394 -42.25V71.75C69.3689 71.75 85.5181 57.4175 93.1654 46.3123C100.903 35.0767 103.747 22.7791 103.747 12.125H-10.2529ZM44.9394 -42.25H41.0659V71.75H44.9394V-42.25ZM98.0659 14.75V9.5H-15.9341V14.75H98.0659Z" fill="#FFC32D" mask="url(#path-4-inside-1)"/>
</g>
<defs>
<clipPath id="clip0">
<rect width="74" height="74.1448" fill="white"/>
</clipPath>
</defs>
</svg>
