<svg width="11" height="12" viewBox="0 0 11 12" fill="none" xmlns="http://www.w3.org/2000/svg">
<g clip-path="url(#clip0)">
<path d="M7.82293 0.399414H3.02385C1.46195 0.399414 0.191284 1.75942 0.191284 3.43115V8.56774C0.191284 10.2394 1.46195 11.5994 3.02385 11.5994H7.82301C9.38483 11.5994 10.6555 10.2394 10.6555 8.56774V3.43115C10.6555 1.75942 9.38483 0.399414 7.82293 0.399414V0.399414ZM10.042 8.56774C10.042 9.87734 9.04657 10.9428 7.82293 10.9428H3.02385C1.80021 10.9428 0.804741 9.87734 0.804741 8.56774V3.43115C0.804741 2.12147 1.80021 1.056 3.02385 1.056H7.82301C9.04657 1.056 10.042 2.12147 10.042 3.43115V8.56774Z" fill="black"/>
<path d="M5.42336 2.9375C3.84565 2.9375 2.56213 4.31126 2.56213 5.99991C2.56213 7.68855 3.84565 9.06232 5.42336 9.06232C7.00107 9.06232 8.28459 7.68855 8.28459 5.99991C8.28459 4.31126 7.00107 2.9375 5.42336 2.9375V2.9375ZM5.42336 8.40573C4.18399 8.40573 3.17559 7.3265 3.17559 5.99991C3.17559 4.6734 4.18399 3.59409 5.42336 3.59409C6.66281 3.59409 7.67113 4.6734 7.67113 5.99991C7.67113 7.3265 6.66281 8.40573 5.42336 8.40573V8.40573Z" fill="black"/>
<path d="M8.35303 1.84961C7.88679 1.84961 7.50757 2.25558 7.50757 2.75451C7.50757 3.25354 7.88679 3.65951 8.35303 3.65951C8.81927 3.65951 9.19856 3.25354 9.19856 2.75451C9.19856 2.25549 8.81927 1.84961 8.35303 1.84961ZM8.35303 3.00283C8.22513 3.00283 8.12102 2.8914 8.12102 2.75451C8.12102 2.61754 8.22513 2.5062 8.35303 2.5062C8.481 2.5062 8.58511 2.61754 8.58511 2.75451C8.58511 2.8914 8.481 3.00283 8.35303 3.00283Z" fill="black"/>
</g>
<defs>
<clipPath id="clip0">
<rect width="10.4642" height="11.2" fill="white" transform="translate(0.191284 0.399414)"/>
</clipPath>
</defs>
</svg>
