<svg width="27" height="28" viewBox="0 0 27 28" fill="none" xmlns="http://www.w3.org/2000/svg">
<ellipse cx="13.4233" cy="14" rx="13.0803" ry="14" fill="#F6F6F6"/>
<g clip-path="url(#clip0)">
<path d="M15.8228 8.39941H11.0237C9.46183 8.39941 8.19116 9.75942 8.19116 11.4311V16.5677C8.19116 18.2394 9.46183 19.5994 11.0237 19.5994H15.8229C17.3847 19.5994 18.6554 18.2394 18.6554 16.5677V11.4311C18.6554 9.75942 17.3847 8.39941 15.8228 8.39941V8.39941ZM18.0419 16.5677C18.0419 17.8773 17.0464 18.9428 15.8228 18.9428H11.0237C9.80009 18.9428 8.80462 17.8773 8.80462 16.5677V11.4311C8.80462 10.1215 9.80009 9.056 11.0237 9.056H15.8229C17.0464 9.056 18.0419 10.1215 18.0419 11.4311V16.5677Z" fill="black"/>
<path d="M13.4232 10.937C11.8455 10.937 10.562 12.3108 10.562 13.9994C10.562 15.6881 11.8455 17.0618 13.4232 17.0618C15.001 17.0618 16.2845 15.6881 16.2845 13.9994C16.2845 12.3108 15.001 10.937 13.4232 10.937ZM13.4232 16.4052C12.1839 16.4052 11.1755 15.326 11.1755 13.9994C11.1755 12.6729 12.1839 11.5936 13.4232 11.5936C14.6627 11.5936 15.671 12.6729 15.671 13.9994C15.671 15.326 14.6627 16.4052 13.4232 16.4052Z" fill="black"/>
<path d="M16.353 9.84961C15.8868 9.84961 15.5076 10.2556 15.5076 10.7545C15.5076 11.2535 15.8868 11.6595 16.353 11.6595C16.8193 11.6595 17.1986 11.2535 17.1986 10.7545C17.1986 10.2555 16.8193 9.84961 16.353 9.84961ZM16.353 11.0028C16.2251 11.0028 16.121 10.8914 16.121 10.7545C16.121 10.6175 16.2251 10.5062 16.353 10.5062C16.481 10.5062 16.5851 10.6175 16.5851 10.7545C16.5851 10.8914 16.481 11.0028 16.353 11.0028Z" fill="black"/>
</g>
<defs>
<clipPath id="clip0">
<rect width="10.4642" height="11.2" fill="white" transform="translate(8.19116 8.39941)"/>
</clipPath>
</defs>
</svg>
