<svg width="76" height="76" viewBox="0 0 76 76" fill="none" xmlns="http://www.w3.org/2000/svg">
<g clip-path="url(#clip0)">
<path d="M51.0284 0.941406C50.229 0.941406 49.5808 1.58965 49.5808 2.38902V9.04802C49.5808 9.84739 50.229 10.4956 51.0284 10.4956C51.8278 10.4956 52.476 9.84739 52.476 9.04802V2.38902C52.476 1.58965 51.8278 0.941406 51.0284 0.941406Z" fill="#F5AF00"/>
<path d="M17.7335 46.1069C16.9344 46.1069 16.2859 46.7555 16.2859 47.5545C16.2859 48.3536 16.9344 49.0022 17.7335 49.0022C18.5326 49.0022 19.1811 48.3536 19.1811 47.5545C19.1811 46.7555 18.5326 46.1069 17.7335 46.1069Z" fill="black"/>
<path d="M71.2949 43.2117C71.2949 40.0188 68.6973 37.4212 65.5045 37.4212H54.6978C56.3708 33.1359 57.048 28.0918 56.9174 23.6018C56.8925 22.7449 56.8596 22.2494 56.8152 21.9375C56.7403 18.8096 54.172 16.2861 51.0284 16.2861C47.8355 16.2861 45.2379 18.8837 45.2379 22.0766V23.5242C45.2379 32.6797 33.4813 37.8238 24.6089 40.0297C23.9381 38.4961 22.4068 37.4212 20.6285 37.4212H6.15244C5.35307 37.4212 4.70483 38.0695 4.70483 38.8689V73.6115C4.70483 74.4109 5.35307 75.0591 6.15244 75.0591H20.6285C22.3949 75.0591 23.9174 73.9984 24.5951 72.4811C25.3298 72.6695 26.0118 72.8476 26.6413 73.012C31.6957 74.3321 34.4799 75.0591 41.2512 75.0591H56.8188C60.0117 75.0591 62.6092 72.4615 62.6092 69.2687C62.6092 68.0782 62.2478 66.9707 61.6292 66.0495C63.8655 65.2673 65.5045 63.1307 65.5045 60.583C65.5045 59.3968 65.1518 58.2858 64.5351 57.3603C66.7616 56.5769 68.3997 54.4451 68.3997 51.8973C68.3997 50.7068 68.0382 49.5994 67.4197 48.6781C69.6559 47.896 71.2949 45.7593 71.2949 43.2117ZM22.0762 70.7163C22.0762 71.5145 21.4268 72.1639 20.6285 72.1639H7.60005V40.3165H20.6285C21.4268 40.3165 22.0762 40.9659 22.0762 41.7641V70.7163ZM65.5045 46.1069C62.3995 46.1069 61.6593 46.1069 58.2664 46.1069C57.467 46.1069 56.8188 46.7551 56.8188 47.5545C56.8188 48.3539 57.467 49.0021 58.2664 49.0021H62.6092C64.2057 49.0021 65.5045 50.3009 65.5045 51.8973C65.5045 53.4964 64.2083 54.7926 62.6092 54.7926H55.3712C54.5718 54.7926 53.9236 55.4408 53.9236 56.2402C53.9236 57.0395 54.5718 57.6878 55.3712 57.6878H59.714C61.2915 57.6878 62.6092 58.9479 62.6092 60.583C62.6092 62.182 61.3131 63.4782 59.714 63.4782C56.609 63.4782 55.8689 63.4782 52.476 63.4782C51.6766 63.4782 51.0284 64.1265 51.0284 64.9258C51.0284 65.7252 51.6766 66.3734 52.476 66.3734H56.8188C58.4152 66.3734 59.714 67.6722 59.714 69.2687C59.714 70.8651 58.4152 72.1639 56.8188 72.1639H41.2512C34.8518 72.1639 32.3523 71.5112 27.373 70.2108C26.6435 70.0203 25.8434 69.8114 24.9714 69.589V42.9258C35.4474 40.4304 48.1331 34.3394 48.1331 23.5242V22.0766C48.1331 20.4801 49.4319 19.1814 51.0284 19.1814C52.6219 19.1814 53.9205 20.4781 53.9236 22.0721V22.0766C53.9236 22.7057 54.7088 30.4268 51.5602 37.4212H46.6855C45.8862 37.4212 45.2379 38.0695 45.2379 38.8689C45.2379 39.6682 45.8862 40.3165 46.6855 40.3165C47.6964 40.3165 63.8545 40.3165 65.5045 40.3165C67.1009 40.3165 68.3997 41.6153 68.3997 43.2117C68.3997 44.8107 67.1035 46.1069 65.5045 46.1069Z" fill="black"/>
<path d="M17.7335 51.8975C16.9341 51.8975 16.2859 52.5457 16.2859 53.3451V64.926C16.2859 65.7253 16.9341 66.3736 17.7335 66.3736C18.5329 66.3736 19.1811 65.7253 19.1811 64.926V53.3451C19.1811 52.5457 18.5329 51.8975 17.7335 51.8975Z" fill="black"/>
<path d="M39.4475 19.1812H33.6571C32.8577 19.1812 32.2095 19.8294 32.2095 20.6288C32.2095 21.4281 32.8577 22.0764 33.6571 22.0764H39.4475C40.2469 22.0764 40.8951 21.4281 40.8951 20.6288C40.8951 19.8294 40.2469 19.1812 39.4475 19.1812Z" fill="#FFC32D"/>
<path d="M68.3999 19.1812H62.6095C61.8101 19.1812 61.1619 19.8294 61.1619 20.6288C61.1619 21.4281 61.8101 22.0764 62.6095 22.0764H68.3999C69.1993 22.0764 69.8475 21.4281 69.8475 20.6288C69.8475 19.8294 69.1993 19.1812 68.3999 19.1812Z" fill="#FFC32D"/>
<path d="M64.3351 7.3223C63.7696 6.75715 62.8533 6.75715 62.2877 7.3223L58.194 11.416C57.6287 11.9813 57.6287 12.8979 58.194 13.4633C58.7596 14.0286 59.6758 14.0285 60.2413 13.4633L64.3351 9.36965C64.9003 8.80436 64.9003 7.88773 64.3351 7.3223Z" fill="#FFC32D"/>
<path d="M43.8629 11.416L39.7692 7.3223C39.2037 6.75715 38.2874 6.75715 37.7218 7.3223C37.1565 7.88759 37.1565 8.80422 37.7218 9.36965L41.8155 13.4633C42.3812 14.0286 43.2974 14.0285 43.8629 13.4633C44.4282 12.8981 44.4282 11.9814 43.8629 11.416Z" fill="#FFC32D"/>
</g>
<defs>
<clipPath id="clip0">
<rect width="74.1176" height="74.1176" fill="white" transform="translate(0.941162 0.941406)"/>
</clipPath>
</defs>
</svg>
