<svg width="76" height="76" viewBox="0 0 76 76" fill="none" xmlns="http://www.w3.org/2000/svg">
<path d="M25.2574 51.6761C28.3099 55.9798 31.3574 59.8291 33.3771 62.3082C33.6711 62.669 33.9466 63.0037 34.2134 63.3261H28.1185C27.4362 63.3261 26.8833 63.8791 26.8833 64.5613C26.8833 65.2436 27.4362 65.7966 28.1185 65.7966H47.8831C48.5654 65.7966 49.1183 65.2436 49.1183 64.5613C49.1183 63.8791 48.5654 63.3261 47.8831 63.3261H41.7882C42.055 63.0037 42.3305 62.6689 42.6258 62.3082C44.6442 59.8376 47.6906 55.9798 50.7442 51.6761C53.7739 47.4918 56.5009 43.0965 58.9045 38.5239C61.427 33.5703 62.7068 29.4581 62.7068 26.3007C62.7152 19.7399 60.1118 13.4457 55.4716 8.80755C55.1617 8.48618 54.7025 8.35705 54.2706 8.46982C53.8386 8.58259 53.501 8.91959 53.3877 9.35142C53.2743 9.78324 53.4027 10.2426 53.7236 10.5529C57.9003 14.7284 60.2436 20.3946 60.2362 26.3005C60.2362 29.0652 59.0478 32.8006 56.7033 37.4022C54.3539 41.8688 51.6887 46.1621 48.7282 50.2493C45.7166 54.4975 42.7061 58.3034 40.7112 60.7493C40.0479 61.5621 39.4512 62.281 38.9422 62.8889C38.7046 63.1602 38.3615 63.3156 38.0009 63.3156C37.6403 63.3156 37.2973 63.16 37.0597 62.8889C36.5507 62.2812 35.9542 61.5621 35.2907 60.7493C33.2958 58.3047 30.2853 54.4987 27.2737 50.2493C24.3132 46.1621 21.648 41.8688 19.2986 37.4022C16.9516 32.8006 15.7657 29.0652 15.7657 26.3005C15.765 17.353 21.116 9.27267 29.354 5.78102C34.8894 3.45991 41.1252 3.45991 46.6606 5.78102C47.0671 5.95328 47.5345 5.89581 47.887 5.62989C48.2395 5.3641 48.4233 4.9304 48.3694 4.4922C48.3154 4.05401 48.0318 3.67792 47.6253 3.50565C35.0458 -1.80015 20.5468 4.09368 15.237 16.6714C13.9494 19.7181 13.289 22.993 13.2952 26.3005C13.2952 29.4579 14.575 33.5703 17.0975 38.53C19.5009 43.1006 22.228 47.4938 25.2574 51.6761Z" fill="black"/>
<path d="M38.0007 15.1492C38.6829 15.1492 39.2359 14.5962 39.2359 13.914C39.2359 13.2317 38.6829 12.6787 38.0007 12.6787C32.1074 12.6786 27.0347 16.8416 25.8849 22.6217C24.735 28.4017 27.8284 34.189 33.2731 36.4444C38.7177 38.6997 44.9973 36.7948 48.2715 31.8948C51.5457 26.9948 50.9026 20.4641 46.7355 16.2969C46.4252 15.9758 45.966 15.847 45.5341 15.96C45.1023 16.0731 44.765 16.4104 44.6519 16.8422C44.5388 17.2742 44.6677 17.7334 44.9888 18.0436C48.3226 21.3773 48.8372 26.6016 46.2181 30.5217C43.5989 34.4419 38.5752 35.9659 34.2195 34.1619C29.8638 32.3579 27.3889 27.7281 28.3085 23.104C29.228 18.4799 33.2861 15.1494 38.0007 15.1492Z" fill="#FFC32D"/>
</svg>
