<svg width="76" height="76" viewBox="0 0 76 76" fill="none" xmlns="http://www.w3.org/2000/svg">
<g clip-path="url(#clip0)">
<path d="M43.6488 28.1355C44.8285 28.5384 45.7665 29.2961 46.3614 30.3264C47.4283 32.1739 46.8379 33.6912 46.8379 34.4261C46.8379 36.2129 48.2672 37.6206 50.1228 37.6206C51.8539 37.6206 53.4128 36.3778 53.7493 34.7297C54.3384 31.8419 53.8302 29.0519 52.5146 26.7736C50.5743 23.4129 46.8773 21.5498 45.1503 21.5498C43.384 21.5498 41.7816 22.8896 41.5022 24.5997C41.2486 26.1503 42.1191 27.6128 43.6488 28.1355V28.1355ZM43.6452 24.9502C43.7559 24.2725 44.4311 23.7214 45.1501 23.7214C45.69 23.7214 48.8425 24.7566 50.6339 27.8595C51.7948 29.87 52.0628 32.1339 51.6215 34.2957C51.4895 34.9426 50.8311 35.4493 50.1226 35.4493C49.3948 35.4493 48.8911 34.9108 49.0327 34.1902C49.3784 32.4365 49.0819 30.6957 48.2417 29.2407C47.3927 27.7702 46.0108 26.648 44.3507 26.0809C43.8568 25.9118 43.5593 25.4755 43.6452 24.9502Z" fill="#FFC32D"/>
<path d="M47.3708 12.3425C45.3758 11.9544 43.3675 13.3175 43.0372 15.3151C43.0367 15.3178 43.0363 15.3206 43.0359 15.3233C42.7505 17.0647 43.8874 18.6335 45.6335 18.976C49.6827 19.7702 52.9808 22.0576 54.9204 25.417C56.9084 28.8602 57.1456 32.9121 55.8551 36.6802C55.2735 38.3804 56.0888 40.139 57.7195 40.7557C57.7221 40.7567 57.725 40.7579 57.7281 40.7589C59.6245 41.472 61.8156 40.3903 62.4691 38.4921C64.48 32.6491 63.8535 26.679 61.0737 21.8646C58.1977 16.8839 53.3313 13.502 47.3708 12.3425V12.3425ZM60.4156 37.7855C60.1513 38.5537 59.2231 39.0031 58.4898 38.7256C58.4877 38.7247 58.4853 38.7238 58.4829 38.723C57.9325 38.512 57.7136 37.9554 57.9095 37.3835C59.4587 32.8591 59.0166 28.1691 56.8007 24.3313C54.5427 20.4205 50.7251 17.7619 46.0513 16.8452C45.512 16.7394 45.1636 16.3507 45.1636 15.8549C45.1636 15.7816 45.1697 15.7352 45.1789 15.6716C45.2891 14.9972 45.9679 14.4485 46.6922 14.4485C47.3556 14.4485 55.0427 15.7622 59.193 22.9504C61.8501 27.5527 62.0962 32.9029 60.4156 37.7855V37.7855Z" fill="#FFC32D"/>
<path d="M69.6325 16.9549C65.3464 9.53145 57.7276 4.49613 48.7299 3.14042C46.7816 2.84568 44.8705 4.22064 44.5538 6.14123C44.5533 6.14412 44.5528 6.14702 44.5525 6.14919C44.2621 7.9266 45.4436 9.54578 47.2565 9.81852C54.2519 10.8711 60.1648 14.7671 63.4792 20.5076C66.7936 26.2479 67.2112 33.3164 64.6251 39.9009C63.9521 41.6147 64.774 43.4428 66.4537 44.078C68.2758 44.7675 70.425 43.7992 71.1454 41.9638C74.4701 33.4939 73.9187 24.3786 69.6325 16.9549V16.9549ZM69.1243 41.1702C68.8388 41.8975 67.9321 42.3151 67.2193 42.046C66.6424 41.8277 66.4288 41.2486 66.6465 40.6945C69.4756 33.4913 69.0067 25.7378 65.3598 19.4217C61.7131 13.1055 55.2324 8.82254 47.5796 7.67094C46.9682 7.57902 46.6005 7.08161 46.6935 6.51124L46.694 6.50835C46.6947 6.50444 46.6954 6.50024 46.696 6.49633C46.818 5.74949 47.6302 5.17131 48.4064 5.28741C56.7468 6.54425 63.798 11.1925 67.7519 18.0405C71.7058 24.8886 72.206 33.3192 69.1243 41.1702V41.1702Z" fill="#FFC32D"/>
<mask id="path-4-inside-1" fill="white">
<path d="M57.4769 58.497C57.177 57.9776 56.5129 57.8001 55.9938 58.0997C55.4745 58.3995 55.2966 59.0635 55.5964 59.5828L57.6857 63.2014C58.2656 64.2059 57.9391 65.5169 56.9052 66.1139L54.91 67.2658C54.1242 65.9049 46.1558 52.1031 45.9311 51.7141L48.3443 50.3209C49.1421 49.8606 50.148 50.146 50.5974 50.9246L53.0629 55.195C53.3627 55.7142 54.0266 55.8922 54.546 55.5924C55.0653 55.2925 55.2432 54.6285 54.9434 54.1092L52.4779 49.8389C51.4335 48.0302 49.0999 47.3771 47.2585 48.4404C43.7786 50.4495 43.2553 50.9256 41.864 50.9256C40.4043 50.9256 39.0449 50.1414 38.3161 48.8789L26.3274 28.1136C25.1902 26.1438 25.8851 23.6448 27.8248 22.5248C27.8255 22.5244 27.8261 22.5239 27.8268 22.5235L31.1782 20.5886C33.0072 19.5325 33.6329 17.1982 32.5768 15.3691L25.4889 3.09229C24.3024 1.03722 21.6651 0.330774 19.61 1.51697C15.9903 3.60693 17.6926 2.62412 11.4242 6.24308C6.04564 9.34826 2.70435 15.1395 2.70435 21.3566C2.70435 22.9917 2.93467 24.6156 3.38893 26.183C3.5557 26.7589 4.15763 27.0896 4.73394 26.9236C5.30995 26.7567 5.64146 26.1545 5.47455 25.5785C5.07732 24.2075 4.8758 22.7871 4.8758 21.3566C4.8758 15.9129 7.80105 10.8421 12.5099 8.12356L16.82 5.63521C17.2049 6.30199 25.5019 20.6727 25.8466 21.2697C23.5405 23.2087 22.9127 26.5417 24.4469 29.1991L36.4356 49.9644C37.551 51.8965 39.6311 53.0968 41.8641 53.0968C42.5943 53.0968 43.3189 52.9673 44.0032 52.7176C50.7373 64.3814 46.293 56.6839 53.0293 68.3514C48.722 70.8382 45.9796 72.8874 41.1031 72.8874C35.6593 72.8874 30.5886 69.9622 27.87 65.2533L7.47591 29.9298C7.1761 29.4105 6.51193 29.2327 5.9928 29.5324C5.47353 29.8322 5.29562 30.4962 5.59543 31.0155L25.9895 66.3392C29.0948 71.7177 34.8861 75.059 41.1031 75.059C46.6846 75.059 49.7642 72.7441 55.0553 69.6892C55.0555 69.689 55.0557 69.6889 55.0559 69.6887L57.9908 67.9944C59.3835 67.1903 60.1433 65.7364 60.1432 64.2643C60.1432 63.5125 59.9435 62.7695 59.566 62.1156L57.4769 58.497ZM18.7006 4.54948L20.6957 3.39745C21.7137 2.80957 23.0205 3.15961 23.6084 4.17802L30.6963 16.4549C31.1531 17.246 30.8805 18.2531 30.0925 18.708L27.6793 20.1012L18.7006 4.54948Z"/>
</mask>
<path d="M57.4769 58.497L92.1182 38.4975L92.116 38.4937L57.4769 58.497ZM55.9938 58.0997L36.0038 23.4529L35.9935 23.4588L55.9938 58.0997ZM55.5964 59.5828L90.2375 39.5828L90.2373 39.5824L55.5964 59.5828ZM57.6857 63.2014L92.3272 43.2023L92.3267 43.2014L57.6857 63.2014ZM56.9052 66.1139L76.9041 100.756L76.9073 100.754L56.9052 66.1139ZM54.91 67.2658L20.2695 87.2667L40.2692 121.905L74.9088 101.908L54.91 67.2658ZM45.9311 51.7141L25.9318 17.0727L-8.71665 37.0761L11.2938 71.7205L45.9311 51.7141ZM48.3443 50.3209L28.3527 15.6751L28.345 15.6795L48.3443 50.3209ZM50.5974 50.9246L85.2386 30.9248L85.2384 30.9245L50.5974 50.9246ZM53.0629 55.195L18.4218 75.1947L18.4221 75.1953L53.0629 55.195ZM54.546 55.5924L74.5422 90.2356L74.5463 90.2332L54.546 55.5924ZM54.9434 54.1092L20.3022 74.109L20.3026 74.1096L54.9434 54.1092ZM52.4779 49.8389L87.1191 29.8391L87.117 29.8356L52.4779 49.8389ZM47.2585 48.4404L67.2581 83.0817L67.2607 83.0802L47.2585 48.4404ZM38.3161 48.8789L72.959 28.8821L72.9572 28.8791L38.3161 48.8789ZM26.3274 28.1136L-8.31477 48.1116L-8.31376 48.1134L26.3274 28.1136ZM27.8248 22.5248L47.8269 57.1646L48.1172 56.997L48.4046 56.8245L27.8248 22.5248ZM27.8268 22.5235L7.82706 -12.1177L7.53559 -11.9494L7.24698 -11.7762L27.8268 22.5235ZM31.1782 20.5886L51.178 55.2298L51.1798 55.2287L31.1782 20.5886ZM32.5768 15.3691L-2.06435 35.3689L-2.064 35.3695L32.5768 15.3691ZM25.4889 3.09229L60.13 -16.9075L60.13 -16.9076L25.4889 3.09229ZM19.61 1.51697L-0.386205 -33.1262L-0.390954 -33.1235L19.61 1.51697ZM11.4242 6.24308L31.4236 40.8844L31.4237 40.8844L11.4242 6.24308ZM3.38893 26.183L41.8103 15.0564L41.8078 15.048L3.38893 26.183ZM4.73394 26.9236L15.8082 65.3601L15.8375 65.3516L15.8668 65.3431L4.73394 26.9236ZM5.47455 25.5785L-32.9451 36.7108L-32.945 36.7113L5.47455 25.5785ZM12.5099 8.12356L32.5091 42.7651L32.5095 42.7648L12.5099 8.12356ZM16.82 5.63521L51.4619 -14.3632L31.4628 -49.0063L-3.17962 -29.006L16.82 5.63521ZM25.8466 21.2697L51.5887 51.8858L77.2526 30.3075L60.4876 1.26966L25.8466 21.2697ZM24.4469 29.1991L-10.1945 49.1986L-10.1942 49.1991L24.4469 29.1991ZM36.4356 49.9644L71.0777 29.9661L71.0767 29.9644L36.4356 49.9644ZM44.0032 52.7176L78.6441 32.7175L61.8477 3.62552L30.2907 15.1415L44.0032 52.7176ZM53.0293 68.3514L73.0289 102.993L107.671 82.9928L87.6703 48.3513L53.0293 68.3514ZM27.87 65.2533L62.511 45.2533L62.511 45.2533L27.87 65.2533ZM7.47591 29.9298L42.1169 9.92978L42.1167 9.92945L7.47591 29.9298ZM5.9928 29.5324L-14.0045 -5.1102L-14.0075 -5.10843L5.9928 29.5324ZM5.59543 31.0155L40.2365 11.0156L40.2363 11.0152L5.59543 31.0155ZM25.9895 66.3392L-8.65159 86.3391L-8.65149 86.3393L25.9895 66.3392ZM55.0553 69.6892L75.0559 104.33L79.6161 101.697L83.3396 97.9734L55.0553 69.6892ZM55.0559 69.6887L35.0574 35.0468L30.4959 37.6801L26.7716 41.4045L55.0559 69.6887ZM57.9908 67.9944L77.9893 102.636L77.9932 102.634L57.9908 67.9944ZM60.1432 64.2643L20.1432 64.2643L20.1432 64.2682L60.1432 64.2643ZM59.566 62.1156L24.9247 82.1151L24.9253 82.1162L59.566 62.1156ZM18.7006 4.54948L-1.3012 -30.0905L-35.9392 -10.0898L-15.9405 24.5493L18.7006 4.54948ZM20.6957 3.39745L40.6976 38.0374L40.6997 38.0362L20.6957 3.39745ZM23.6084 4.17802L-11.034 24.1756L-11.0328 24.1778L23.6084 4.17802ZM30.6963 16.4549L65.3379 -3.5441L65.3375 -3.54491L30.6963 16.4549ZM30.0925 18.708L10.095 -15.9345L10.0932 -15.9334L30.0925 18.708ZM27.6793 20.1012L-6.9618 40.101L13.0378 74.7416L47.6787 54.7426L27.6793 20.1012ZM92.116 38.4937C80.7602 18.8293 55.6331 12.1275 36.0038 23.4529L75.9838 92.7464C57.3928 103.473 33.5937 97.1259 22.8379 78.5004L92.116 38.4937ZM35.9935 23.4588C16.3423 34.8047 9.61011 59.9326 20.9556 79.5831L90.2373 39.5824C100.983 58.1944 94.6068 81.9942 75.9941 92.7405L35.9935 23.4588ZM20.9554 79.5828L23.0446 83.2014L92.3267 43.2014L90.2375 39.5828L20.9554 79.5828ZM23.0441 83.2006C12.7864 65.4326 18.4508 42.1291 36.9032 31.4741L76.9073 100.754C97.4275 88.9048 103.745 62.9793 92.3272 43.2023L23.0441 83.2006ZM36.9064 31.4722L34.9111 32.6241L74.9088 101.908L76.9041 100.756L36.9064 31.4722ZM89.5505 47.2649C88.7683 45.9103 80.7951 32.1002 80.5685 31.7077L11.2938 71.7205C11.5165 72.1061 19.48 85.8994 20.2695 87.2667L89.5505 47.2649ZM65.9305 86.3555L68.3437 84.9623L28.345 15.6795L25.9318 17.0727L65.9305 86.3555ZM68.336 84.9668C49.714 95.7122 26.3834 88.9846 15.9565 70.9246L85.2384 30.9245C73.9125 11.3075 48.5703 4.00899 28.3527 15.6751L68.336 84.9668ZM15.9563 70.9244L18.4218 75.1947L87.7041 35.1952L85.2386 30.9248L15.9563 70.9244ZM18.4221 75.1953C29.7687 94.8477 54.8946 101.576 74.5422 90.2356L34.5499 20.9491C53.1586 10.2081 76.9568 16.5808 87.7037 35.1946L18.4221 75.1953ZM74.5463 90.2332C94.1975 78.8873 100.93 53.7595 89.5842 34.1089L20.3026 74.1096C9.55669 55.4976 15.933 31.6978 34.5457 20.9515L74.5463 90.2332ZM89.5846 34.1095L87.1191 29.8391L17.8368 69.8386L20.3022 74.109L89.5846 34.1095ZM87.117 29.8356C75.157 9.12477 48.4555 1.55945 27.2562 13.8007L67.2607 83.0802C49.7442 93.1948 27.7099 86.9356 17.8388 69.8422L87.117 29.8356ZM27.2588 13.7992C26.3022 14.3515 25.2209 14.9893 24.9699 15.1359C24.3614 15.4913 24.9504 15.1292 25.8779 14.6651C27.0089 14.0991 29.5111 12.9269 32.9499 12.0527C36.6094 11.1225 39.7471 10.9256 41.864 10.9256V90.9256C44.6765 90.9256 48.4014 90.6692 52.6591 89.5869C56.6961 88.5607 59.8074 87.1438 61.6781 86.2077C63.3454 85.3734 64.8046 84.5156 65.3165 84.2167C66.1858 83.709 66.4748 83.5339 67.2581 83.0817L27.2588 13.7992ZM41.864 10.9256C54.6708 10.9256 66.5301 17.7447 72.959 28.8821L3.67325 68.8757C11.5596 82.5381 26.1379 90.9256 41.864 90.9256V10.9256ZM72.9572 28.8791L60.9685 8.11372L-8.31376 48.1134L3.67501 68.8788L72.9572 28.8791ZM60.9695 8.11548C70.9856 25.4662 64.8264 47.3486 47.8269 57.1646L7.82269 -12.115C-13.0562 -0.0588991 -20.6052 26.8213 -8.31477 48.1116L60.9695 8.11548ZM48.4046 56.8245C48.9101 56.5213 49.3205 56.2597 49.5974 56.0801C49.6666 56.0351 49.7283 55.9948 49.7809 55.9603C49.8334 55.9258 49.8784 55.8961 49.9136 55.8728C49.9313 55.861 49.947 55.8506 49.9603 55.8418C49.9736 55.8329 49.985 55.8254 49.9939 55.8195C50.0026 55.8136 50.0097 55.8089 50.014 55.806C50.0162 55.8046 50.018 55.8034 50.0191 55.8026C50.0196 55.8023 50.0201 55.802 50.0204 55.8018C50.0205 55.8017 50.0206 55.8016 50.0207 55.8016C50.0207 55.8016 50.0208 55.8015 50.0208 55.8015C50.0208 55.8015 50.0208 55.8015 50.0208 55.8015C50.0214 55.8011 50.018 55.8033 50.0142 55.8059C50.0099 55.8088 50.0028 55.8135 49.9941 55.8193C49.9853 55.8252 49.9739 55.8327 49.9607 55.8415C49.9474 55.8503 49.9317 55.8607 49.9141 55.8724C49.879 55.8957 49.834 55.9254 49.7817 55.9598C49.7291 55.9943 49.6675 56.0345 49.5984 56.0794C49.3219 56.2588 48.9117 56.5202 48.4066 56.8232L7.24698 -11.7762C6.74153 -11.4729 6.33106 -11.2114 6.05421 -11.0317C5.98498 -10.9868 5.92328 -10.9465 5.87068 -10.9119C5.81824 -10.8775 5.77321 -10.8478 5.73801 -10.8244C5.7203 -10.8127 5.70457 -10.8023 5.69125 -10.7934C5.67797 -10.7846 5.66659 -10.777 5.65774 -10.7711C5.64897 -10.7653 5.64188 -10.7606 5.63757 -10.7577C5.63537 -10.7562 5.63359 -10.755 5.63251 -10.7543C5.63195 -10.754 5.6315 -10.7537 5.63123 -10.7535C5.63109 -10.7534 5.63098 -10.7533 5.63091 -10.7533C5.63088 -10.7532 5.63084 -10.7532 5.63083 -10.7532C5.63081 -10.7532 5.6308 -10.7532 5.6308 -10.7532C5.63022 -10.7528 5.63355 -10.755 5.63745 -10.7576C5.64171 -10.7605 5.64877 -10.7652 5.6575 -10.771C5.6663 -10.7768 5.67765 -10.7844 5.69089 -10.7932C5.70416 -10.802 5.71986 -10.8124 5.73752 -10.8241C5.77264 -10.8474 5.81759 -10.8771 5.86995 -10.9115C5.92246 -10.9459 5.98408 -10.9862 6.05323 -11.0311C6.32975 -11.2105 6.73987 -11.4719 7.24496 -11.7749L48.4046 56.8245ZM47.8266 57.1647L51.178 55.2298L11.1785 -14.0526L7.82706 -12.1177L47.8266 57.1647ZM51.1798 55.2287C72.136 43.1284 79.3213 16.3325 67.2176 -4.63124L-2.064 35.3695C-12.0556 18.064 -6.12162 -4.06331 11.1767 -14.0515L51.1798 55.2287ZM67.218 -4.63063L60.13 -16.9075L-9.15228 23.0921L-2.06435 35.3689L67.218 -4.63063ZM60.13 -16.9076C47.896 -38.0976 20.7957 -45.3525 -0.386205 -33.1262L39.6062 36.1602C22.5344 46.0141 0.708779 40.172 -9.15221 23.0922L60.13 -16.9076ZM-0.390954 -33.1235C-4.01001 -31.0339 -2.30722 -32.017 -8.5753 -28.3982L31.4237 40.8844C37.6925 37.2652 35.9907 38.2477 39.611 36.1574L-0.390954 -33.1235ZM-8.57519 -28.3983C-26.3463 -18.1385 -37.2957 0.867392 -37.2957 21.3566H42.7043C42.7043 29.4117 38.4376 36.8351 31.4236 40.8844L-8.57519 -28.3983ZM-37.2957 21.3566C-37.2957 26.751 -36.5353 32.124 -35.03 37.318L41.8078 15.048C42.4047 17.1072 42.7043 19.2323 42.7043 21.3566H-37.2957ZM-35.0324 37.3095C-28.703 59.1658 -5.8942 71.6129 15.8082 65.3601L-6.34032 -11.5128C14.2095 -17.4336 35.8144 -5.64803 41.8103 15.0564L-35.0324 37.3095ZM15.8668 65.3431C37.6676 59.0259 50.2077 36.2339 43.8941 14.4456L-32.945 36.7113C-38.9248 16.0751 -27.0477 -5.51251 -6.39894 -11.4959L15.8668 65.3431ZM43.8942 14.4461C44.5472 16.6995 44.8758 19.0272 44.8758 21.3566H-35.1242C-35.1242 26.547 -34.3925 31.7156 -32.9451 36.7108L43.8942 14.4461ZM44.8758 21.3566C44.8758 30.182 40.1956 38.3275 32.5091 42.7651L-7.48923 -26.5179C-24.5935 -16.6433 -35.1242 1.64369 -35.1242 21.3566H44.8758ZM32.5095 42.7648L36.8196 40.2765L-3.17962 -29.006L-7.48968 -26.5177L32.5095 42.7648ZM-17.8219 25.6337C-17.4364 26.3015 -9.13842 40.6739 -8.7944 41.2698L60.4876 1.26966C60.1422 0.671508 51.8462 -13.6975 51.4619 -14.3632L-17.8219 25.6337ZM0.104486 -9.34637C-16.8299 4.89211 -21.5682 29.498 -10.1945 49.1986L59.0882 9.19974C67.3935 23.5854 63.9109 41.5252 51.5887 51.8858L0.104486 -9.34637ZM-10.1942 49.1991L1.79459 69.9643L71.0767 29.9644L59.0879 9.19919L-10.1942 49.1991ZM1.79361 69.9626C10.0624 84.2863 25.3565 93.0968 41.8641 93.0968V13.0968C53.9058 13.0968 65.0397 19.5068 71.0777 29.9661L1.79361 69.9626ZM41.8641 93.0968C47.3153 93.0968 52.6785 92.132 57.7156 90.2938L30.2907 15.1415C33.9592 13.8027 37.8733 13.0968 41.8641 13.0968V93.0968ZM9.3622 72.7177C16.1159 84.4154 11.632 76.6492 18.3884 88.3515L87.6703 48.3513C80.9541 36.7185 85.3587 44.3474 78.6441 32.7175L9.3622 72.7177ZM33.0298 33.7101C32.278 34.1441 31.5885 34.5524 31.1054 34.8384C30.5596 35.1615 30.2828 35.3249 30.0433 35.4632C29.5541 35.7454 30.0023 35.4624 30.8973 35.0606C31.9217 34.6007 33.4992 33.9927 35.5022 33.5347C37.5283 33.0715 39.4384 32.8874 41.1031 32.8874V112.887C59.1694 112.887 72.552 103.268 73.0289 102.993L33.0298 33.7101ZM41.1031 32.8874C49.9288 32.8874 58.0738 37.5679 62.511 45.2533L-6.77109 85.2533C3.10342 102.356 21.3897 112.887 41.1031 112.887V32.8874ZM62.511 45.2533L42.1169 9.92978L-27.1651 49.9298L-6.77107 85.2533L62.511 45.2533ZM42.1167 9.92945C30.7669 -9.72866 5.63761 -16.4485 -14.0045 -5.1102L25.9901 64.175C7.38624 74.914 -16.4147 68.5497 -27.1649 49.9301L42.1167 9.92945ZM-14.0075 -5.10843C-33.6587 6.23742 -40.3909 31.3653 -29.0454 51.0158L40.2363 11.0152C50.9822 29.6272 44.6058 53.427 25.9931 64.1732L-14.0075 -5.10843ZM-29.0456 51.0154L-8.65159 86.3391L60.6305 46.3393L40.2365 11.0156L-29.0456 51.0154ZM-8.65149 86.3393C1.60831 104.11 20.6138 115.059 41.1031 115.059V35.059C49.1584 35.059 56.5813 39.3258 60.6304 46.3391L-8.65149 86.3393ZM41.1031 115.059C50.2627 115.059 58.0142 112.969 64.6392 109.98C67.5016 108.689 69.8935 107.344 71.4281 106.458C72.2053 106.009 72.976 105.553 73.5251 105.228C74.1343 104.868 74.5965 104.595 75.0559 104.33L35.0547 35.0485C34.1914 35.547 33.3998 36.015 32.8061 36.3661C32.1522 36.7527 31.7707 36.9782 31.4279 37.176C30.7225 37.5833 31.0036 37.3902 31.737 37.0593C32.6128 36.6641 34.0719 36.0923 35.9659 35.6587C37.8839 35.2195 39.6472 35.059 41.1031 35.059V115.059ZM83.3396 97.9734C83.1913 98.1217 83.0462 98.2645 82.9048 98.4016C82.7633 98.5388 82.625 98.6709 82.4903 98.7979C82.2212 99.0515 81.9637 99.2872 81.7205 99.5047C81.4773 99.7223 81.2451 99.9246 81.0263 100.111C80.8074 100.298 80.5991 100.472 80.4032 100.632C80.2073 100.793 80.0213 100.942 79.8469 101.08C79.6725 101.218 79.5074 101.346 79.3531 101.464C79.1989 101.582 79.0534 101.691 78.918 101.792C78.7826 101.892 78.6555 101.985 78.5379 102.071C78.4203 102.156 78.3105 102.235 78.2097 102.306C78.1089 102.378 78.0155 102.443 77.9306 102.503C77.8458 102.562 77.7679 102.615 77.6983 102.663C77.6288 102.711 77.5658 102.754 77.5109 102.791C77.456 102.828 77.4074 102.861 77.3667 102.889C77.3261 102.916 77.2914 102.939 77.2646 102.957C77.2381 102.975 77.2166 102.989 77.2037 102.998C77.1971 103.002 77.1917 103.005 77.1885 103.008C77.1855 103.01 77.183 103.011 77.1834 103.011C77.1834 103.011 77.1835 103.011 77.1835 103.011C77.1836 103.011 77.1837 103.011 77.1838 103.011C77.184 103.011 77.1843 103.01 77.1847 103.01C77.1855 103.01 77.1869 103.009 77.1885 103.008C77.1918 103.005 77.1971 103.002 77.2037 102.998C77.2167 102.989 77.2381 102.975 77.2647 102.957C77.2915 102.939 77.3262 102.916 77.3669 102.888C77.4076 102.861 77.4562 102.828 77.5111 102.791C77.566 102.754 77.629 102.711 77.6985 102.663C77.7681 102.615 77.846 102.562 77.9309 102.502C78.0157 102.443 78.1092 102.378 78.21 102.306C78.3108 102.234 78.4206 102.156 78.5382 102.071C78.6558 101.985 78.783 101.892 78.9183 101.791C79.0537 101.691 79.1992 101.581 79.3535 101.463C79.5078 101.345 79.6729 101.217 79.8473 101.08C80.0217 100.942 80.2077 100.793 80.4037 100.632C80.5995 100.472 80.8079 100.298 81.0268 100.111C81.2456 99.9242 81.4778 99.7219 81.721 99.5043C81.9643 99.2868 82.2218 99.0512 82.4909 98.7975C82.6256 98.6705 82.7639 98.5384 82.9054 98.4012C83.0468 98.264 83.1919 98.1213 83.3402 97.973L26.7716 41.4045C26.9199 41.2562 27.065 41.1134 27.2064 40.9763C27.3479 40.8391 27.4861 40.707 27.6209 40.58C27.89 40.3263 28.1475 40.0907 28.3907 39.8732C28.6339 39.6556 28.8661 39.4533 29.0849 39.2666C29.3038 39.0797 29.5121 38.9059 29.708 38.7455C29.9039 38.585 30.0899 38.4357 30.2643 38.298C30.4387 38.1603 30.6038 38.0322 30.758 37.9143C30.9123 37.7963 31.0578 37.6868 31.1932 37.5862C31.3286 37.4856 31.4557 37.3924 31.5733 37.3071C31.6909 37.2219 31.8007 37.1432 31.9015 37.0717C32.0023 37.0001 32.0957 36.9345 32.1806 36.8753C32.2654 36.8162 32.3433 36.7624 32.4128 36.7146C32.4824 36.6669 32.5454 36.624 32.6003 36.5867C32.6552 36.5495 32.7038 36.5167 32.7445 36.4894C32.7851 36.4621 32.8198 36.4388 32.8466 36.421C32.8731 36.4032 32.8946 36.3889 32.9075 36.3804C32.9141 36.376 32.9195 36.3724 32.9227 36.3703C32.9256 36.3683 32.9282 36.3666 32.9277 36.3669C32.9277 36.3669 32.9277 36.3669 32.9277 36.367C32.9276 36.367 32.9275 36.3671 32.9274 36.3671C32.9272 36.3673 32.9269 36.3675 32.9265 36.3678C32.9257 36.3683 32.9243 36.3692 32.9227 36.3703C32.9194 36.3724 32.9141 36.376 32.9075 36.3804C32.8945 36.389 32.8731 36.4033 32.8465 36.421C32.8197 36.4389 32.785 36.4621 32.7443 36.4894C32.7036 36.5168 32.655 36.5496 32.6001 36.5868C32.5452 36.6241 32.4822 36.667 32.4126 36.7148C32.343 36.7626 32.2652 36.8164 32.1803 36.8755C32.0955 36.9346 32.002 37.0003 31.9012 37.0718C31.8004 37.1434 31.6906 37.2221 31.573 37.3074C31.4554 37.3926 31.3282 37.4858 31.1928 37.5865C31.0575 37.6871 30.9119 37.7966 30.7577 37.9146C30.6034 38.0325 30.4383 38.1606 30.2639 38.2983C30.0895 38.4361 29.9035 38.5853 29.7075 38.7458C29.5117 38.9063 29.3033 39.0801 29.0844 39.2669C28.8656 39.4537 28.6334 39.656 28.3901 39.8736C28.1469 40.0911 27.8894 40.3267 27.6203 40.5804C27.4856 40.7074 27.3473 40.8395 27.2058 40.9767C27.0644 41.1139 26.9193 41.2566 26.771 41.4049L83.3396 97.9734ZM75.0543 104.331L77.9893 102.636L37.9924 33.3525L35.0574 35.0468L75.0543 104.331ZM77.9932 102.634C92.3784 94.3274 100.145 79.2969 100.143 64.2604L20.1432 64.2682C20.142 52.1759 26.3885 40.0531 37.9884 33.3548L77.9932 102.634ZM100.143 64.2643C100.143 56.4567 98.0781 48.8201 94.2067 42.1149L24.9253 82.1162C21.809 76.7188 20.1432 70.5684 20.1432 64.2643H100.143ZM94.2073 42.116L92.1182 38.4975L22.8356 78.4966L24.9247 82.1151L94.2073 42.116ZM38.7024 39.1895L40.6976 38.0374L0.693936 -31.2425L-1.3012 -30.0905L38.7024 39.1895ZM40.6997 38.0362C22.5831 48.4986 -0.577052 42.2905 -11.034 24.1756L58.2508 -15.8195C46.6181 -35.9713 20.8443 -42.8794 0.691783 -31.2413L40.6997 38.0362ZM-11.0328 24.1778L-3.94483 36.4546L65.3375 -3.54491L58.2495 -15.8217L-11.0328 24.1778ZM-3.94529 36.4538C-14.5626 18.0628 -8.20049 -5.37332 10.095 -15.9345L50.09 53.3504C69.9614 41.8796 76.8687 16.4292 65.3379 -3.5441L-3.94529 36.4538ZM10.0932 -15.9334L7.67994 -14.5402L47.6787 54.7426L50.0919 53.3494L10.0932 -15.9334ZM62.3204 0.101315L53.3417 -15.4504L-15.9405 24.5493L-6.9618 40.101L62.3204 0.101315Z" fill="black" mask="url(#path-4-inside-1)"/>
</g>
<defs>
<clipPath id="clip0">
<rect width="74.1176" height="74.1176" fill="white" transform="translate(0.941162 0.941406)"/>
</clipPath>
</defs>
</svg>
