<svg width="74" height="74" viewBox="0 0 74 74" fill="none" xmlns="http://www.w3.org/2000/svg">
<path d="M63.7551 50.7642C63.7366 50.7597 63.718 50.7554 63.6992 50.7517L50.9848 48.2101V42.1907C53.3846 40.2854 54.8206 37.3719 54.8206 34.2441V24.5889C56.0805 23.9985 57.2076 23.3394 58.1749 22.6171C58.5887 22.308 58.758 21.7688 58.5953 21.2788C58.4326 20.7887 57.9742 20.4579 57.4578 20.4579H57.3414C57.0293 15.1742 54.6693 10.3423 50.9848 6.84988V6.31318C50.9848 5.65101 50.4482 5.11447 49.7861 5.11447C49.5502 5.11447 49.3307 5.18368 49.1453 5.30131C47.0388 3.72925 44.611 2.55004 41.9604 1.88708C41.6947 0.805529 40.7194 0 39.5571 0H34.4427C33.2804 0 32.3053 0.805529 32.0393 1.88708C29.3888 2.5502 26.961 3.72925 24.8545 5.30131C24.6691 5.18368 24.4496 5.11447 24.2137 5.11447C23.5516 5.11447 23.015 5.65101 23.015 6.31318V6.84988C19.3305 10.3423 16.9705 15.1742 16.6584 20.4579H16.542C16.0256 20.4579 15.5672 20.7886 15.4045 21.2788C15.2418 21.7689 15.4111 22.308 15.8249 22.6171C16.7921 23.3394 17.9194 23.9985 19.1792 24.5889V34.2441C19.1792 37.3719 20.6152 40.2854 23.015 42.1907V48.2101L10.3004 50.7517C10.2817 50.7554 10.2632 50.7597 10.2445 50.7642C5.71835 51.8957 2.55713 55.9446 2.55713 60.6103V70.2441C2.55713 72.3151 4.24203 74 6.31307 74H67.6867C69.7578 74 71.4427 72.3151 71.4427 70.2441V60.6103C71.4427 55.9446 68.2814 51.8957 63.7551 50.7642ZM57.5377 71.6026H16.4621V65.1296C16.4621 63.6755 17.6451 62.4924 19.0992 62.4924H54.9005C56.3547 62.4924 57.5377 63.6755 57.5377 65.1296V71.6026ZM31.6246 47.0573C33.2681 47.9538 35.1266 48.4276 36.9999 48.4276C37.0001 48.4276 37.0002 48.4276 37.0004 48.4276C37.0005 48.4276 37.0007 48.4276 37.0009 48.4276C38.8731 48.4276 40.7315 47.9538 42.375 47.0573L48.5874 43.6688V48.5076C48.5874 51.4936 45.5527 54.9806 36.9999 54.9806C28.4471 54.9806 25.4124 51.4936 25.4124 48.5076V43.6688L31.6246 47.0573ZM25.4124 60.095V53.8811C27.7988 56.0938 31.8442 57.378 36.9999 57.378C42.1556 57.378 46.201 56.0938 48.5874 53.8811V60.095H25.4124ZM23.015 60.095H20.298V51.1979L23.015 50.6548V60.095ZM53.7018 60.095H50.9848V50.6548L53.7018 51.1979V60.095ZM36.9999 25.5724C31.2092 25.5724 25.7177 24.6267 21.5766 23.0011V22.8553H52.4232V23.0011C48.2821 24.6267 42.7906 25.5724 36.9999 25.5724ZM25.4124 7.92104C27.2941 6.32644 29.5126 5.106 31.9653 4.39189V20.4579H25.4124V7.92104ZM42.0345 4.39189C44.4872 5.106 46.7057 6.32644 48.5874 7.92104V20.4579H42.0345V4.39189ZM54.936 20.4579H50.9848V10.3763C53.2556 13.1944 54.6837 16.693 54.936 20.4579ZM34.4427 2.39741H39.5571C39.6011 2.39741 39.637 2.43337 39.637 2.47732V2.86362C39.637 2.86378 39.637 2.8641 39.637 2.86442V20.4579H34.3627V2.47732C34.3627 2.43337 34.3987 2.39741 34.4427 2.39741ZM23.015 10.3763V20.4579H19.0638C19.3161 16.693 20.7442 13.1944 23.015 10.3763ZM21.5766 34.2441V25.5727C23.5525 26.2804 25.761 26.8436 28.1295 27.2465V29.3283C28.1295 29.9905 28.666 30.527 29.3282 30.527C29.9904 30.527 30.5269 29.9905 30.5269 29.3283V27.5927C32.6016 27.8401 34.7729 27.9698 36.9999 27.9698C39.2269 27.9698 41.3982 27.8401 43.4729 27.5927V29.3283C43.4729 29.9905 44.0094 30.527 44.6716 30.527C45.3338 30.527 45.8703 29.9905 45.8703 29.3283V27.2465C48.2388 26.8436 50.4473 26.2805 52.4232 25.5727V34.2441C52.4232 37.0825 50.8751 39.6901 48.3834 41.0492L41.2272 44.9527C39.9346 45.6577 38.4733 46.0302 36.9999 46.0302C36.9997 46.0302 36.9996 46.0302 36.9994 46.0302C36.9993 46.0302 36.9991 46.0302 36.9989 46.0302C35.5266 46.0302 34.0653 45.6577 32.7729 44.9527L25.6167 41.0492C23.1247 39.6901 21.5766 37.0825 21.5766 34.2441ZM4.95454 70.2441V60.6103C4.95454 57.0559 7.35642 53.9703 10.7993 53.0968L17.9005 51.6773V60.2403C15.7015 60.7796 14.0647 62.7665 14.0647 65.1296V71.6026H6.31307C5.56396 71.6026 4.95454 70.9932 4.95454 70.2441ZM69.0453 70.2441C69.0453 70.9932 68.4358 71.6026 67.6867 71.6026H59.9351V65.1296C59.9351 62.7665 58.2983 60.7797 56.0992 60.2403V51.6773L63.2005 53.0968C66.6434 53.9703 69.0453 57.0559 69.0453 60.6103V70.2441Z" fill="black"/>
<path d="M31.2109 39.2347C32.6319 40.2016 34.7418 40.7562 36.9998 40.7562C39.258 40.7562 41.3679 40.2016 42.7888 39.2347C43.336 38.8623 43.4779 38.1167 43.1052 37.5692C42.7328 37.0218 41.9872 36.8804 41.4398 37.2528C40.4222 37.9453 38.7624 38.3588 36.9998 38.3588C35.2374 38.3588 33.5776 37.9453 32.5598 37.2528C32.0127 36.8805 31.267 37.022 30.8944 37.5692C30.5219 38.1165 30.6636 38.8623 31.2109 39.2347Z" fill="#FFC32D"/>
</svg>
