<svg width="27" height="29" viewBox="0 0 27 29" fill="none" xmlns="http://www.w3.org/2000/svg">
<ellipse cx="13.5986" cy="14.5596" rx="13.0803" ry="14" fill="#F6F6F6"/>
<g clip-path="url(#clip0)">
<path d="M15.3504 13.6512L12.4606 11.9589C12.2945 11.8616 12.0981 11.8653 11.9352 11.9685C11.7722 12.0719 11.675 12.2546 11.675 12.4573V15.8129C11.675 16.0146 11.7716 16.197 11.9335 16.3005C12.018 16.3545 12.1117 16.3816 12.2057 16.3816C12.2917 16.3816 12.3779 16.3589 12.4572 16.3132L15.3471 14.65C15.5186 14.5512 15.6257 14.3604 15.6265 14.1518C15.6272 13.9432 15.5214 13.7514 15.3504 13.6512ZM12.4416 15.3908V12.8828L14.6013 14.1477L12.4416 15.3908Z" fill="black"/>
<path d="M19.7809 11.4783L19.7803 11.4719C19.7692 11.3592 19.659 10.3569 19.2037 9.84706C18.6775 9.24742 18.0809 9.17457 17.794 9.13965C17.7703 9.13676 17.7485 9.13409 17.729 9.13132L17.7062 9.12875C15.977 8.99417 13.3654 8.9758 13.3393 8.97569L13.337 8.97559L13.3347 8.97569C13.3086 8.9758 10.697 8.99417 8.95223 9.12875L8.92918 9.13132C8.91062 9.13399 8.89016 9.13644 8.86791 9.13922C8.58429 9.17425 7.99411 9.24721 7.46639 9.86853C7.03279 10.3729 6.90745 11.3537 6.89457 11.464L6.89308 11.4783C6.88918 11.5252 6.79688 12.6414 6.79688 13.7621V14.8097C6.79688 15.9304 6.88918 17.0467 6.89308 17.0937L6.89378 17.1007C6.90485 17.2116 7.01503 18.1955 7.46819 18.7055C7.96297 19.2851 8.58858 19.3618 8.92509 19.403C8.97828 19.4095 9.02408 19.4151 9.05532 19.421L9.08556 19.4254C10.084 19.5271 13.2144 19.5772 13.3472 19.5793L13.3512 19.5794L13.3552 19.5793C13.3813 19.5791 15.9927 19.5608 17.722 19.4262L17.7448 19.4236C17.7667 19.4205 17.7912 19.4178 17.8182 19.4148C18.1002 19.3827 18.6872 19.3162 19.2076 18.7033C19.6412 18.1988 19.7666 17.218 19.7794 17.1079L19.7809 17.0935C19.7848 17.0465 19.8772 15.9304 19.8772 14.8097V13.7621C19.8771 12.6414 19.7848 11.5253 19.7809 11.4783ZM19.1106 14.8097C19.1106 15.847 19.026 16.9152 19.018 17.0132C18.9854 17.2833 18.8532 17.9039 18.642 18.1497C18.3162 18.5333 17.9816 18.5713 17.7373 18.5989C17.7078 18.6023 17.6804 18.6055 17.6557 18.6088C15.9831 18.7382 13.4702 18.7581 13.3545 18.7588C13.2246 18.7568 10.14 18.7063 9.17198 18.61C9.12238 18.6014 9.06879 18.5948 9.01231 18.5879C8.7258 18.5528 8.33361 18.5047 8.03203 18.1497L8.02494 18.1416C7.81737 17.9101 7.68894 17.3298 7.6563 17.0164C7.65022 16.9423 7.56339 15.8615 7.56339 14.8097V13.7621C7.56339 12.726 7.64782 11.659 7.656 11.5589C7.69482 11.2407 7.82955 10.6578 8.03203 10.4221C8.36774 10.0269 8.72171 9.98313 8.95582 9.95419C8.97818 9.95141 8.99904 9.94885 9.0183 9.94618C10.7152 9.81608 13.2462 9.79675 13.337 9.796C13.4278 9.79664 15.9579 9.81608 17.6397 9.94618C17.6604 9.94895 17.6829 9.95173 17.7072 9.95472C17.948 9.9841 18.3119 10.0285 18.6459 10.4098L18.649 10.4134C18.8566 10.6448 18.9851 11.2353 19.0177 11.555C19.0235 11.6249 19.1106 12.7081 19.1106 13.7621V14.8097Z" fill="black"/>
</g>
<defs>
<clipPath id="clip0">
<rect width="13.0803" height="13.9999" fill="white" transform="translate(6.79688 7.28027)"/>
</clipPath>
</defs>
</svg>
