<svg width="14" height="15" viewBox="0 0 14 15" fill="none" xmlns="http://www.w3.org/2000/svg">
<g clip-path="url(#clip0)">
<path d="M9.35024 6.65148L6.46051 4.95917C6.29435 4.86186 6.09795 4.8655 5.93509 4.96878C5.77213 5.07218 5.67493 5.25482 5.67493 5.45755V8.81312C5.67493 9.01489 5.77153 9.19722 5.93339 9.30072C6.01792 9.35476 6.11163 9.38189 6.20553 9.38189C6.29155 9.38189 6.37778 9.35914 6.45711 9.31343L9.34695 7.65027C9.5185 7.55147 9.62557 7.3606 9.62637 7.152C9.62707 6.9434 9.52129 6.75167 9.35024 6.65148V6.65148ZM6.44144 8.39101V5.88308L8.60119 7.14794L6.44144 8.39101Z" fill="black"/>
<path d="M13.7808 4.47828L13.7802 4.47187C13.7691 4.35918 13.6588 3.35687 13.2036 2.84706C12.6774 2.24742 12.0808 2.17457 11.7939 2.13965C11.7701 2.13676 11.7484 2.13409 11.7289 2.13132L11.7061 2.12875C9.97683 1.99417 7.36531 1.9758 7.33917 1.97569L7.33687 1.97559L7.33458 1.97569C7.30843 1.9758 4.69691 1.99417 2.95211 2.12875L2.92906 2.13132C2.9105 2.13399 2.89004 2.13644 2.86778 2.13922C2.58417 2.17425 1.99398 2.24721 1.46627 2.86853C1.03267 3.37289 0.907325 4.35373 0.894452 4.46396L0.892955 4.47828C0.889063 4.52517 0.796753 5.64145 0.796753 6.76211V7.80971C0.796753 8.93037 0.889063 10.0467 0.892955 10.0937L0.893653 10.1007C0.90473 10.2116 1.0149 11.1955 1.46807 11.7055C1.96285 12.2851 2.58846 12.3618 2.92497 12.403C2.97816 12.4095 3.02396 12.4151 3.0552 12.421L3.08544 12.4254C4.08388 12.5271 7.21432 12.5772 7.34705 12.5793L7.35104 12.5794L7.35503 12.5793C7.38118 12.5791 9.9926 12.5608 11.7218 12.4262L11.7447 12.4236C11.7665 12.4205 11.7911 12.4178 11.818 12.4148C12.1001 12.3827 12.687 12.3162 13.2075 11.7033C13.6411 11.1988 13.7665 10.218 13.7793 10.1079L13.7808 10.0935C13.7847 10.0465 13.8771 8.93037 13.8771 7.80971V6.76211C13.877 5.64145 13.7847 4.52527 13.7808 4.47828V4.47828ZM13.1105 7.80971C13.1105 8.84695 13.0258 9.91517 13.0179 10.0132C12.9853 10.2833 12.8531 10.9039 12.6418 11.1497C12.3161 11.5333 11.9815 11.5713 11.7372 11.5989C11.7077 11.6023 11.6803 11.6055 11.6556 11.6088C9.98302 11.7382 7.4701 11.7581 7.35434 11.7588C7.2245 11.7568 4.13986 11.7063 3.17186 11.61C3.12226 11.6014 3.06867 11.5948 3.01219 11.5879C2.72568 11.5528 2.33349 11.5047 2.03191 11.1497L2.02482 11.1416C1.81725 10.9101 1.68881 10.3298 1.65618 10.0164C1.65009 9.9423 1.56327 8.86148 1.56327 7.80971V6.76211C1.56327 5.72604 1.6477 4.659 1.65588 4.55892C1.6947 4.24073 1.82942 3.65775 2.03191 3.42213C2.36761 3.02693 2.72159 2.98313 2.9557 2.95419C2.97806 2.95141 2.99891 2.94885 3.01817 2.94618C4.71508 2.81608 7.24606 2.79675 7.33687 2.796C7.42768 2.79664 9.95777 2.81608 11.6396 2.94618C11.6603 2.94895 11.6828 2.95173 11.7071 2.95472C11.9479 2.9841 12.3118 3.02853 12.6458 3.40984L12.6489 3.41337C12.8565 3.64483 12.9849 4.23528 13.0176 4.55497C13.0233 4.62493 13.1105 5.7081 13.1105 6.76211V7.80971Z" fill="black"/>
</g>
<defs>
<clipPath id="clip0">
<rect width="13.0803" height="13.9999" fill="white" transform="translate(0.796753 0.280273)"/>
</clipPath>
</defs>
</svg>
