<svg width="14" height="12" viewBox="0 0 14 12" fill="none" xmlns="http://www.w3.org/2000/svg">
<path d="M9.35036 5.65124L6.46063 3.95892C6.29447 3.86162 6.09808 3.86525 5.93521 3.96854C5.77225 4.07193 5.67505 4.25458 5.67505 4.45731V7.81288C5.67505 8.01465 5.77165 8.19697 5.93352 8.30047C6.01804 8.35452 6.11175 8.38165 6.20565 8.38165C6.29168 8.38165 6.3779 8.3589 6.45723 8.31318L9.34707 6.65003C9.51862 6.55123 9.6257 6.36036 9.62649 6.15176C9.62719 5.94315 9.52141 5.75143 9.35036 5.65124ZM6.44157 7.39076V4.88284L8.60131 6.1477L6.44157 7.39076Z" fill="black"/>
<path d="M13.7809 3.47828L13.7803 3.47187C13.7692 3.35918 13.659 2.35687 13.2037 1.84706C12.6775 1.24742 12.0809 1.17457 11.794 1.13965C11.7703 1.13676 11.7485 1.13409 11.729 1.13132L11.7062 1.12875C9.97695 0.994171 7.36543 0.9758 7.33929 0.975693L7.33699 0.975586L7.3347 0.975693C7.30855 0.9758 4.69704 0.994171 2.95223 1.12875L2.92918 1.13132C2.91062 1.13399 2.89016 1.13644 2.86791 1.13922C2.58429 1.17425 1.99411 1.24721 1.46639 1.86853C1.03279 2.37289 0.907447 3.35373 0.894574 3.46396L0.893077 3.47828C0.889185 3.52517 0.796875 4.64145 0.796875 5.76211V6.80971C0.796875 7.93037 0.889185 9.04666 0.893077 9.09365L0.893775 9.1007C0.904852 9.21157 1.01503 10.1955 1.46819 10.7055C1.96297 11.2851 2.58858 11.3618 2.92509 11.403C2.97828 11.4095 3.02408 11.4151 3.05532 11.421L3.08556 11.4254C4.084 11.5271 7.21445 11.5772 7.34717 11.5793L7.35116 11.5794L7.35516 11.5793C7.3813 11.5791 9.99272 11.5608 11.722 11.4262L11.7448 11.4236C11.7667 11.4205 11.7912 11.4178 11.8182 11.4148C12.1002 11.3827 12.6872 11.3162 13.2076 10.7033C13.6412 10.1988 13.7666 9.21798 13.7794 9.10786L13.7809 9.09355C13.7848 9.04655 13.8772 7.93037 13.8772 6.80971V5.76211C13.8771 4.64145 13.7848 3.52527 13.7809 3.47828ZM13.1106 6.80971C13.1106 7.84695 13.026 8.91517 13.018 9.01322C12.9854 9.28335 12.8532 9.90392 12.642 10.1497C12.3162 10.5333 11.9816 10.5713 11.7373 10.5989C11.7078 10.6023 11.6804 10.6055 11.6557 10.6088C9.98314 10.7382 7.47022 10.7581 7.35446 10.7588C7.22462 10.7568 4.13998 10.7063 3.17198 10.61C3.12238 10.6014 3.06879 10.5948 3.01231 10.5879C2.7258 10.5528 2.33361 10.5047 2.03203 10.1497L2.02494 10.1416C1.81737 9.91012 1.68894 9.32981 1.6563 9.01643C1.65022 8.9423 1.56339 7.86148 1.56339 6.80971V5.76211C1.56339 4.72604 1.64782 3.659 1.656 3.55892C1.69482 3.24073 1.82955 2.65775 2.03203 2.42213C2.36774 2.02693 2.72171 1.98313 2.95582 1.95419C2.97818 1.95141 2.99904 1.94885 3.0183 1.94618C4.7152 1.81608 7.24618 1.79675 7.33699 1.796C7.42781 1.79664 9.95789 1.81608 11.6397 1.94618C11.6604 1.94895 11.6829 1.95173 11.7072 1.95472C11.948 1.9841 12.3119 2.02853 12.6459 2.40984L12.649 2.41337C12.8566 2.64483 12.9851 3.23528 13.0177 3.55497C13.0235 3.62493 13.1106 4.7081 13.1106 5.76211V6.80971Z" fill="black"/>
</svg>
